<svg width="235" height="165" viewBox="0 0 235 165" fill="none" xmlns="../../external.html?link=http://www.w3.org/2000/svg">
<g clip-path="url(#clip0)">
<path d="M204.803 136.046C209.309 138.653 209.309 142.959 204.803 145.452L121.668 194.178C117.275 196.784 110.065 196.784 105.559 194.178L30.0838 150.324C25.5779 147.718 25.5779 143.412 30.0838 140.919L113.219 92.193C117.612 89.5867 124.822 89.5867 129.328 92.193L204.803 136.046Z" fill="#FFCE00"/>
<path d="M114.233 160.523C113.219 159.956 112.093 158.483 111.98 156.783C111.98 155.99 112.205 155.31 112.656 155.083L105.559 159.276C105.108 159.503 104.771 160.183 104.883 160.976C104.996 162.676 106.122 164.149 107.136 164.715C107.812 165.169 108.601 165.282 109.164 165.055L116.261 160.863C115.697 161.089 115.022 160.976 114.233 160.523Z" fill="url(#paint0_linear)"/>
<path d="M114.346 147.378C111.867 145.905 109.614 145.792 107.925 146.812L100.828 151.004C102.517 149.984 104.77 150.211 107.249 151.571C112.656 154.744 116.937 162.223 116.486 168.228C116.373 170.721 115.359 172.534 113.782 173.441L120.879 169.248C122.456 168.342 123.47 166.529 123.583 164.036C123.921 158.03 119.753 150.551 114.346 147.378Z" fill="url(#paint1_linear)"/>
<path d="M107.136 151.571C112.543 154.744 116.824 162.223 116.373 168.228C116.035 173.328 112.318 175.481 107.699 173.214C107.474 173.101 107.249 172.988 107.023 172.874C101.954 169.928 98.0115 162.902 98.0115 156.897C98.1241 151.004 102.18 148.625 107.136 151.571ZM107.136 164.716C108.375 165.395 109.727 165.509 109.727 163.582C109.727 162.109 108.601 160.296 107.136 159.39C107.023 159.39 107.023 159.276 106.911 159.276C105.672 158.596 104.77 159.503 104.77 160.976C104.883 162.676 106.122 164.036 107.136 164.716Z" fill="#1B1B1B"/>
<path d="M164.475 131.06C163.461 130.494 162.334 129.021 162.222 127.321C162.222 126.528 162.447 125.848 162.898 125.621L155.801 129.814C155.35 130.04 155.012 130.72 155.125 131.514C155.238 133.213 156.364 134.686 157.378 135.253C158.054 135.706 158.842 135.82 159.406 135.593L166.502 131.4C165.939 131.74 165.263 131.514 164.475 131.06Z" fill="url(#paint2_linear)"/>
<path d="M164.587 118.029C162.109 116.556 159.856 116.443 158.166 117.462L151.069 121.655C152.759 120.635 155.012 120.862 157.49 122.222C162.898 125.395 167.178 132.874 166.728 138.879C166.615 141.372 165.601 143.185 164.024 144.092L171.121 139.899C172.698 138.993 173.712 137.18 173.824 134.687C174.162 128.567 169.994 121.202 164.587 118.029Z" fill="url(#paint3_linear)"/>
<path d="M157.378 122.109C162.785 125.281 167.066 132.76 166.615 138.766C166.277 143.865 162.56 146.018 157.941 143.752C157.716 143.639 157.49 143.525 157.265 143.412C152.196 140.466 148.253 133.44 148.253 127.434C148.366 121.655 152.421 119.276 157.378 122.109ZM157.378 135.253C158.617 135.933 159.969 136.046 159.969 134.12C159.969 132.647 158.842 130.834 157.378 129.927C157.265 129.927 157.265 129.814 157.152 129.814C155.913 129.134 155.012 130.041 155.012 131.514C155.237 133.214 156.364 134.687 157.378 135.253Z" fill="#1B1B1B"/>
<path d="M86.0707 143.752C85.0569 143.185 83.9304 141.712 83.8177 140.012C83.8177 139.219 84.043 138.539 84.4936 138.312L77.3967 142.505C76.9461 142.732 76.6082 143.412 76.7208 144.205C76.8335 145.905 77.96 147.378 78.9738 147.944C79.6497 148.398 80.4382 148.511 81.0015 148.284L88.0984 144.092C87.5351 144.432 86.8592 144.205 86.0707 143.752Z" fill="url(#paint4_linear)"/>
<path d="M86.1832 130.607C83.7049 129.134 81.4519 129.021 79.7622 130.041L72.6653 134.233C74.355 133.213 76.608 133.44 79.0863 134.8C84.4935 137.973 88.7742 145.452 88.3236 151.457C88.2109 153.95 87.1971 155.763 85.62 156.67L92.7169 152.477C94.294 151.571 95.3078 149.758 95.4205 147.265C95.7584 141.259 91.5904 133.78 86.1832 130.607Z" fill="url(#paint5_linear)"/>
<path d="M78.9737 134.8C84.3809 137.973 88.6616 145.452 88.211 151.457C87.873 156.557 84.1556 158.71 79.537 156.443C79.3117 156.33 79.0864 156.217 78.8611 156.103C73.7919 153.157 69.8491 146.132 69.8491 140.126C69.9618 134.233 74.0172 131.967 78.9737 134.8ZM78.9737 147.945C80.2129 148.625 81.5647 148.738 81.5647 146.811C81.5647 145.338 80.4382 143.525 78.9737 142.619C78.8611 142.619 78.8611 142.505 78.7484 142.505C77.5093 141.826 76.4954 142.732 76.6081 144.205C76.7207 145.905 77.9599 147.378 78.9737 147.945Z" fill="#1B1B1B"/>
<path d="M66.9202 112.59L123.921 79.2749L124.822 84.4875L67.7087 117.802L66.9202 112.59Z" fill="#131313"/>
<path d="M116.824 34.7417L114.346 18.1975C113.67 15.7045 112.543 13.6648 110.966 12.0784L101.278 1.42667C100.715 0.860086 100.264 0.406819 99.7012 0.0668702C98.9127 -0.386395 98.0115 -0.499708 97.3356 -0.159759L40.335 33.2686C41.0109 32.9286 41.7994 32.9286 42.7006 33.4952C43.2638 33.8352 43.7144 34.2884 44.2777 34.855L53.9655 45.5067C55.5426 47.0932 56.5565 49.1329 57.345 51.6258L59.8233 68.17L65.4558 103.978L122.569 70.663L116.824 34.7417Z" fill="url(#paint6_linear)"/>
<path d="M177.317 114.97L124.822 84.4878L67.709 117.803L120.204 148.285C122.457 149.531 123.696 152.364 123.696 154.404C123.696 155.424 123.358 156.33 122.682 156.784L179.795 123.469C180.471 123.129 180.809 122.222 180.809 121.089C180.696 119.049 179.57 116.216 177.317 114.97Z" fill="url(#paint7_linear)"/>
<path d="M65.3433 103.865L122.344 70.5498L176.866 102.165L119.866 135.593L65.3433 103.865Z" fill="#303030"/>
<path opacity="0.32" d="M160.87 93.8929L121.893 71.5696C121.443 71.343 121.218 70.8897 121.105 70.4364C120.316 65.5638 115.923 38.0279 115.923 38.0279C115.698 36.3282 117.275 34.8551 115.698 35.0817C114.008 35.3083 112.881 36.7815 113.107 38.4812L116.599 70.4364C116.712 71.4563 116.937 72.9294 118.289 74.1759C118.514 74.4025 118.739 74.6291 119.077 74.7425L158.955 98.0857C158.955 98.0857 158.955 98.0857 158.842 98.0857C159.068 98.199 159.293 98.199 159.631 98.0857L160.307 97.6324C160.87 97.2924 161.321 96.4992 161.321 95.9326V94.4595C161.095 94.2329 160.983 94.0062 160.87 93.8929Z" fill="url(#paint8_linear)"/>
<path opacity="0.32" d="M109.277 127.208L71.3138 100.918C70.8632 100.692 70.6379 100.239 70.5252 99.7853C69.7367 94.9127 64.3295 71.4562 64.3295 71.4562C64.1042 69.7564 65.6813 68.2833 64.1042 68.5099C62.4145 68.7366 61.288 70.2097 61.5133 71.9094L66.0192 99.7853C66.1319 100.805 66.3572 102.278 67.709 103.525C67.9343 103.751 68.1596 103.978 68.4975 104.091L107.362 131.514C107.362 131.514 107.362 131.514 107.249 131.514C107.474 131.627 107.7 131.627 108.037 131.514L108.713 131.061C109.277 130.721 109.727 129.927 109.727 129.361V127.888C109.502 127.548 109.389 127.321 109.277 127.208Z" fill="url(#paint9_linear)"/>
<path d="M188.019 69.6429C187.793 69.4163 187.455 69.1897 187.117 68.963C186.104 68.3964 184.864 68.1698 183.963 68.7364L126.963 102.165C127.864 101.598 129.216 101.825 130.117 102.391C130.455 102.618 130.793 102.845 131.018 103.071C133.496 105.564 133.046 108.737 132.708 110.55L126.399 142.052C126.174 143.072 125.611 143.865 124.822 144.318L181.936 111.003C182.724 110.55 183.175 109.757 183.513 108.737L189.821 77.2351C190.046 75.3087 190.497 72.2492 188.019 69.6429Z" fill="url(#paint10_linear)"/>
<path d="M42.7007 33.4952C43.264 33.8352 43.7146 34.2885 44.2778 34.8551L53.9657 45.5068C55.5427 47.0932 56.5566 49.1329 57.3451 51.6259L59.8234 68.1701L65.4559 103.978L119.978 135.593L125.836 104.091C126.287 101.485 128.652 101.485 130.229 102.392C130.567 102.618 130.905 102.845 131.131 103.072C133.609 105.564 133.158 108.737 132.82 110.55L126.512 142.052C125.836 144.659 123.583 145.452 120.992 143.979L67.033 112.703L67.8215 117.916L120.204 148.285C122.457 149.531 123.696 152.364 123.696 154.404C123.696 156.33 122.457 157.803 120.204 156.444L66.695 125.395C63.9915 123.808 61.6258 120.182 60.9499 116.556L51.0368 54.3455C50.5862 51.8525 49.347 49.1329 47.5446 47.2065L41.3489 40.4075C39.8845 38.8211 39.0959 36.7814 39.3212 34.9684C39.4339 34.2885 39.6592 33.8352 39.9971 33.4952C40.7857 32.9287 41.6869 32.9287 42.7007 33.4952Z" fill="#1B1B1B"/>
<path d="M116.148 33.9485C115.923 33.8351 115.585 33.8351 115.247 34.0618L114.346 34.6284C113.67 35.0816 112.994 36.1015 112.994 36.8947V38.8211C112.994 39.2743 113.107 39.501 113.444 39.6143L173.599 74.8556L179.795 71.2295L116.148 33.9485Z" fill="url(#paint11_linear)"/>
<path d="M186.442 99.4454C186.442 99.4454 186.442 99.5588 186.554 99.5588C186.554 99.5588 186.554 99.4454 186.442 99.4454ZM186.329 98.8789C186.329 98.9922 186.329 99.1055 186.329 99.2188C186.329 98.9922 186.329 98.8789 186.329 98.8789ZM186.329 99.2188V99.3321C186.442 99.3321 186.442 99.2188 186.329 99.2188ZM189.033 93.8929C189.145 93.8929 189.145 93.8929 189.033 93.8929C189.145 93.8929 189.145 93.8929 189.033 93.8929ZM189.371 94.0063C189.371 94.0063 189.371 93.8929 189.371 94.0063C189.371 93.8929 189.371 94.0063 189.371 94.0063ZM118.176 52.3059C117.951 52.1926 117.613 52.1926 117.275 52.4192L116.374 52.9858C115.698 53.439 115.022 54.4589 115.022 55.2521V57.1785C115.022 57.6317 115.135 57.8584 115.36 57.9717L158.843 83.4678L165.038 79.8417L118.176 52.3059Z" fill="url(#paint12_linear)"/>
<path d="M64.5546 68.6233C64.3293 68.5099 63.9913 68.5099 63.6534 68.7366L62.7522 69.3032C62.0763 69.7564 61.4004 70.7763 61.4004 71.5695V73.4959C61.4004 73.9491 61.513 74.1758 61.7383 74.4024L124.484 111.117L125.723 104.545L64.5546 68.6233Z" fill="url(#paint13_linear)"/>
<path d="M67.5963 85.9607C67.371 85.8473 67.0331 85.8474 66.6951 86.074L65.7939 86.6406C65.118 87.0938 64.4421 88.1137 64.4421 88.9069V90.8333C64.4421 91.2865 64.5548 91.5132 64.7801 91.7398L121.781 125.055L123.02 118.483L67.5963 85.9607Z" fill="url(#paint14_linear)"/>
<path opacity="0.44" d="M231.508 -14.0971L129.216 -58.1771C124.71 -60.7834 117.387 -60.7834 113.107 -58.1771L3.37948 -9.4511C1.23914 -8.0913 0 -6.50488 0 -4.80513L26.7045 145.339C26.7045 147.152 27.831 148.738 30.084 149.985L105.672 193.838C110.178 196.445 117.5 196.445 121.781 193.838L204.916 145.112C207.056 143.753 208.295 142.166 208.295 140.466L235 -9.56442C234.775 -11.1508 233.648 -12.8506 231.508 -14.0971Z" fill="url(#paint15_linear)"/>
</g>
<defs>
<linearGradient id="paint0_linear" x1="113.707" y1="164.625" x2="106.041" y2="155.521" gradientUnits="userSpaceOnUse">
<stop stop-color="#1B1B1B"/>
<stop offset="0.278" stop-color="#1B1B1B"/>
<stop offset="0.5973" stop-color="#303030"/>
<stop offset="1" stop-color="#303030"/>
</linearGradient>
<linearGradient id="paint1_linear" x1="100.735" y1="159.794" x2="123.592" y2="159.794" gradientUnits="userSpaceOnUse">
<stop stop-color="#1B1B1B"/>
<stop offset="0.4794" stop-color="#1B1B1B"/>
<stop offset="0.8492" stop-color="#303030"/>
<stop offset="1" stop-color="#303030"/>
</linearGradient>
<linearGradient id="paint2_linear" x1="155.092" y1="130.698" x2="166.495" y2="130.698" gradientUnits="userSpaceOnUse">
<stop stop-color="#1B1B1B"/>
<stop offset="0.4794" stop-color="#1B1B1B"/>
<stop offset="0.5973" stop-color="#303030"/>
<stop offset="1" stop-color="#303030"/>
</linearGradient>
<linearGradient id="paint3_linear" x1="161.033" y1="122.932" x2="169.928" y2="142.936" gradientUnits="userSpaceOnUse">
<stop stop-color="#1B1B1B"/>
<stop offset="0.4794" stop-color="#1B1B1B"/>
<stop offset="0.8492" stop-color="#303030"/>
<stop offset="1" stop-color="#303030"/>
</linearGradient>
<linearGradient id="paint4_linear" x1="84.5872" y1="148.738" x2="79.4645" y2="139.19" gradientUnits="userSpaceOnUse">
<stop stop-color="#1B1B1B"/>
<stop offset="0.278" stop-color="#1B1B1B"/>
<stop offset="0.5973" stop-color="#303030"/>
<stop offset="1" stop-color="#303030"/>
</linearGradient>
<linearGradient id="paint5_linear" x1="72.5734" y1="143.056" x2="95.4291" y2="143.056" gradientUnits="userSpaceOnUse">
<stop stop-color="#1B1B1B"/>
<stop offset="0.4794" stop-color="#1B1B1B"/>
<stop offset="0.8492" stop-color="#303030"/>
<stop offset="1" stop-color="#303030"/>
</linearGradient>
<linearGradient id="paint6_linear" x1="87.2218" y1="56.0454" x2="65.0876" y2="18.0718" gradientUnits="userSpaceOnUse">
<stop stop-color="#161616"/>
<stop offset="0.4794" stop-color="#161616"/>
<stop offset="0.5973" stop-color="#303030"/>
<stop offset="1" stop-color="#303030"/>
</linearGradient>
<linearGradient id="paint7_linear" x1="131.525" y1="131.057" x2="143.302" y2="151.077" gradientUnits="userSpaceOnUse">
<stop stop-color="#101010"/>
<stop offset="0.4794" stop-color="#1B1B1B"/>
<stop offset="0.5973" stop-color="#303030"/>
<stop offset="1" stop-color="#303030"/>
</linearGradient>
<linearGradient id="paint8_linear" x1="146.338" y1="85.7365" x2="126.89" y2="65.3085" gradientUnits="userSpaceOnUse">
<stop offset="0.1507" stop-color="#0D0D0D" stop-opacity="0"/>
<stop offset="0.442" stop-color="#0A0A0A" stop-opacity="0.4"/>
<stop offset="0.7957" stop-color="#0A0A0A"/>
</linearGradient>
<linearGradient id="paint9_linear" x1="90.9612" y1="119.474" x2="76.8557" y2="97.861" gradientUnits="userSpaceOnUse">
<stop offset="0.0310656" stop-color="#0D0D0D" stop-opacity="0"/>
<stop offset="0.1507" stop-color="#0D0D0D" stop-opacity="0"/>
<stop offset="0.442" stop-color="#0A0A0A" stop-opacity="0.4"/>
<stop offset="0.7957" stop-color="#0A0A0A"/>
</linearGradient>
<linearGradient id="paint10_linear" x1="142.695" y1="84.0826" x2="154.345" y2="103.156" gradientUnits="userSpaceOnUse">
<stop stop-color="#1B1B1B"/>
<stop offset="0.4794" stop-color="#1B1B1B"/>
<stop offset="0.5973" stop-color="#303030"/>
<stop offset="1" stop-color="#303030"/>
</linearGradient>
<linearGradient id="paint11_linear" x1="147.334" y1="52.0965" x2="144.07" y2="57.7169" gradientUnits="userSpaceOnUse">
<stop stop-color="#1B1B1B"/>
<stop offset="0.4297" stop-color="#303030"/>
<stop offset="0.4794" stop-color="#1B1B1B"/>
<stop offset="1" stop-color="#D0A919"/>
</linearGradient>
<linearGradient id="paint12_linear" x1="153.285" y1="72.7019" x2="150.018" y2="78.3266" gradientUnits="userSpaceOnUse">
<stop stop-color="#1B1B1B"/>
<stop offset="0.4297" stop-color="#303030"/>
<stop offset="0.4794" stop-color="#1B1B1B"/>
<stop offset="1" stop-color="#D0A919"/>
</linearGradient>
<linearGradient id="paint13_linear" x1="95.1431" y1="87.03" x2="91.7069" y2="92.9308" gradientUnits="userSpaceOnUse">
<stop stop-color="#1B1B1B"/>
<stop offset="0.4297" stop-color="#303030"/>
<stop offset="0.4794" stop-color="#1B1B1B"/>
<stop offset="1" stop-color="#D0A919"/>
</linearGradient>
<linearGradient id="paint14_linear" x1="95.6177" y1="102.196" x2="92.3573" y2="107.81" gradientUnits="userSpaceOnUse">
<stop stop-color="#1B1B1B"/>
<stop offset="0.4297" stop-color="#303030"/>
<stop offset="0.4794" stop-color="#1B1B1B"/>
<stop offset="1" stop-color="#D0A919"/>
</linearGradient>
<linearGradient id="paint15_linear" x1="117.496" y1="138.014" x2="117.496" y2="34.3238" gradientUnits="userSpaceOnUse">
<stop stop-color="#FFBB13" stop-opacity="0.63"/>
<stop offset="0.4323" stop-color="#FFB905" stop-opacity="0.22"/>
<stop offset="0.9635" stop-color="#FFE101" stop-opacity="0"/>
</linearGradient>
<clipPath id="clip0">
<rect width="235" height="165" fill="white"/>
</clipPath>
</defs>
</svg>
