<svg width="141" height="38" viewBox="0 0 141 38" fill="none" xmlns="../../external.html?link=http://www.w3.org/2000/svg">
<path d="M37.4849 23.5996C34.929 33.7483 24.6459 39.98 14.4223 37.428C4.25813 34.8759 -1.98304 24.6085 0.572871 14.4004C3.12878 4.25165 13.4118 -1.98002 23.6355 0.572001C33.8591 3.06467 40.0408 13.3915 37.4849 23.5996Z" fill="#F7931A"/>
<path d="M27.6381 16.4327C27.9958 13.9508 26.0881 12.681 23.4652 11.7575L24.2997 8.40986L22.2133 7.8904L21.3787 11.1226C20.8422 11.0072 20.246 10.8917 19.7095 10.7186L20.5441 7.42864L18.4576 6.90918L17.623 10.2568C17.1461 10.1414 16.7289 10.0837 16.3116 9.96824L13.4501 9.27563L12.9136 11.4689C12.9136 11.4689 14.4635 11.8152 14.4039 11.8152C15.2385 12.0461 15.4174 12.5656 15.3577 12.9696L14.4039 16.779C14.4635 16.779 14.5231 16.8367 14.6424 16.8367C14.5828 16.8367 14.5232 16.779 14.4039 16.779L13.0328 22.0891C12.9136 22.3199 12.6751 22.724 12.079 22.5508C12.079 22.6085 10.5291 22.2045 10.5291 22.2045L9.51562 24.5132L12.2578 25.1481C12.7944 25.2636 13.2713 25.379 13.7482 25.4945L12.854 28.8421L14.9404 29.3616L15.775 26.0139C16.3712 26.1871 16.9077 26.3025 17.4442 26.4179L16.6096 29.7079L18.6961 30.2273L19.5903 26.8797C23.1671 27.5146 25.8497 27.2837 26.9823 24.1669C27.8765 21.6273 26.9227 20.1844 25.0747 19.2609C26.3266 19.0877 27.34 18.222 27.6381 16.4327ZM22.869 22.8971C22.2133 25.4367 17.8615 24.0515 16.4308 23.7052L17.5634 19.2609C18.9941 19.6072 23.5248 20.2998 22.869 22.8971ZM23.5248 16.375C22.9286 18.6837 19.2922 17.5293 18.1 17.2407L19.1134 13.2005C20.3056 13.4313 24.1209 13.9508 23.5248 16.375Z" fill="white"/>
<path d="M54.5541 13.8971C55.6108 13.8971 56.5049 14.0996 57.277 14.4639C58.0492 14.8282 58.6995 15.3545 59.1872 15.9618C59.6748 16.6095 60.0813 17.3382 60.3251 18.1883C60.569 19.0385 60.6909 19.9696 60.6909 20.9412C60.6909 22.439 60.4064 23.8964 59.8374 25.2324C59.2684 26.5683 58.4963 27.7423 57.5615 28.7544C56.5861 29.7664 55.4482 30.5356 54.1477 31.1024C52.8472 31.6691 51.4248 31.9525 49.8804 31.9525C49.6772 31.9525 49.3521 31.9525 48.8237 31.9525C48.2954 31.9525 47.7671 31.912 47.1168 31.7906C46.4666 31.7096 45.8163 31.5882 45.0848 31.3858C44.3532 31.2238 43.703 30.9809 43.0527 30.6571L48.7425 6.81263L53.8226 6.04346L51.7905 14.5044C52.2376 14.302 52.6846 14.14 53.091 14.0591C53.5787 13.9376 54.0258 13.8971 54.5541 13.8971ZM50.2868 27.9042C51.059 27.9042 51.7905 27.7018 52.4408 27.3375C53.1317 26.9731 53.7006 26.4873 54.1883 25.8396C54.676 25.2324 55.0824 24.5037 55.3669 23.7345C55.6514 22.9653 55.814 22.1152 55.814 21.265C55.814 20.2125 55.6514 19.4028 55.2856 18.7956C54.9199 18.1883 54.2696 17.9049 53.3349 17.9049C53.0097 17.9049 52.644 17.9454 52.1156 18.0669C51.628 18.1883 51.1809 18.3907 50.7745 18.7551L48.6205 27.7423C48.7425 27.7828 48.8644 27.7828 48.9863 27.8233C49.0676 27.8637 49.1895 27.8637 49.3114 27.8637C49.4334 27.8637 49.5553 27.8637 49.7178 27.8637C49.8804 27.8637 50.043 27.9042 50.2868 27.9042Z" fill="white"/>
<path d="M65.9736 31.5071H61.0967L65.2014 14.2614H70.1189L65.9736 31.5071ZM68.3307 12.1563C67.6398 12.1563 67.0302 11.9539 66.5019 11.549C65.9329 11.1442 65.6891 10.537 65.6891 9.68683C65.6891 9.24152 65.7704 8.7962 65.9736 8.39138C66.1768 7.98655 66.4206 7.62221 66.7051 7.33883C67.0302 7.05545 67.3554 6.81255 67.7618 6.65061C68.1682 6.48868 68.6152 6.40771 69.0623 6.40771C69.7532 6.40771 70.3628 6.61013 70.8911 7.01496C71.4195 7.41979 71.7039 8.02703 71.7039 8.87717C71.7039 9.32249 71.6227 9.7678 71.4194 10.1726C71.2162 10.5775 70.9724 10.9418 70.6879 11.2252C70.3628 11.5086 70.0377 11.7515 69.6313 11.9134C69.2248 12.0753 68.7778 12.1563 68.3307 12.1563Z" fill="white"/>
<path d="M74.3871 9.97036L79.5078 9.20117L78.2479 14.302H83.6938L82.7184 18.3098H77.2725L75.8095 24.3418C75.6876 24.8276 75.6063 25.3134 75.5656 25.7587C75.525 26.204 75.6063 26.5683 75.7282 26.8922C75.8501 27.2161 76.094 27.459 76.4191 27.6209C76.7442 27.7828 77.2319 27.9043 77.8822 27.9043C78.4105 27.9043 78.9388 27.8638 79.4265 27.7424C79.9142 27.6614 80.4019 27.4995 80.9302 27.3375L81.296 31.0619C80.6457 31.3048 79.9142 31.5073 79.142 31.6692C78.3699 31.8311 77.4758 31.9121 76.4191 31.9121C74.9154 31.9121 73.7368 31.6692 72.8833 31.2239C72.0299 30.7786 71.4609 30.1713 71.0951 29.4022C70.7294 28.633 70.6075 27.7424 70.6481 26.7303C70.6887 25.7182 70.8513 24.6657 71.0951 23.5321L74.3871 9.97036Z" fill="white"/>
<path d="M83.4902 24.6253C83.4902 23.1275 83.7341 21.7511 84.2218 20.4151C84.7095 19.1197 85.4004 17.9457 86.2945 16.9741C87.1885 16.0025 88.2859 15.2333 89.5864 14.6665C90.8462 14.0998 92.3093 13.8164 93.8943 13.8164C94.8697 13.8164 95.7638 13.8974 96.536 14.0998C97.3081 14.3022 98.0397 14.5451 98.6493 14.8285L96.983 18.6339C96.5359 18.4719 96.0889 18.31 95.6012 18.1481C95.1135 17.9861 94.5445 17.9457 93.8537 17.9457C92.228 17.9457 90.9275 18.5124 89.9928 19.6055C89.058 20.739 88.5703 22.2368 88.5703 24.0991C88.5703 25.2326 88.8142 26.1232 89.3019 26.8114C89.7896 27.4996 90.6837 27.8235 91.9842 27.8235C92.6344 27.8235 93.244 27.7425 93.813 27.6211C94.4226 27.4996 94.951 27.3377 95.398 27.1353L95.7638 31.0216C95.1542 31.2645 94.4633 31.4669 93.7317 31.6694C93.0002 31.8313 92.1061 31.9527 91.0494 31.9527C89.7083 31.9527 88.5297 31.7503 87.595 31.3455C86.6602 30.9407 85.888 30.4144 85.2784 29.7667C84.6688 29.0785 84.2218 28.3093 83.9373 27.4187C83.6122 26.528 83.4902 25.5969 83.4902 24.6253Z" fill="white"/>
<path d="M105.111 31.9527C103.932 31.9527 102.957 31.7908 102.063 31.4265C101.209 31.0621 100.518 30.5763 99.9495 29.9691C99.3805 29.3214 98.9741 28.5927 98.6896 27.7425C98.4051 26.8924 98.2832 25.9208 98.2832 24.8682C98.2832 23.5728 98.4864 22.2368 98.9335 20.9414C99.3399 19.6459 99.9901 18.4315 100.844 17.4194C101.656 16.3668 102.713 15.5167 103.892 14.8285C105.111 14.1808 106.493 13.8164 108.037 13.8164C109.175 13.8164 110.191 13.9783 111.044 14.3427C111.898 14.707 112.629 15.1928 113.198 15.8001C113.767 16.4478 114.174 17.1765 114.458 18.0266C114.743 18.8768 114.905 19.8484 114.905 20.9009C114.905 22.1964 114.702 23.5323 114.296 24.8278C113.889 26.1232 113.28 27.2972 112.467 28.3498C111.654 29.4023 110.638 30.2525 109.419 30.9407C108.118 31.6289 106.736 31.9527 105.111 31.9527ZM107.549 17.9052C106.818 17.9052 106.208 18.1076 105.639 18.5124C105.07 18.9172 104.623 19.4435 104.257 20.0913C103.892 20.739 103.607 21.4272 103.404 22.1559C103.201 22.9251 103.119 23.6133 103.119 24.3015C103.119 25.3945 103.282 26.2447 103.648 26.8519C104.014 27.4591 104.623 27.783 105.558 27.783C106.289 27.783 106.899 27.5806 107.468 27.1758C107.996 26.7709 108.484 26.2447 108.85 25.5969C109.216 24.9492 109.5 24.261 109.703 23.5323C109.906 22.7631 109.988 22.0749 109.988 21.3867C109.988 20.2937 109.825 19.4435 109.459 18.8363C109.094 18.229 108.484 17.9052 107.549 17.9052Z" fill="white"/>
<path d="M120.148 31.5071H115.271L119.376 14.2614H124.294L120.148 31.5071ZM122.546 12.1563C121.855 12.1563 121.246 11.9539 120.717 11.549C120.189 11.1442 119.905 10.537 119.905 9.68683C119.905 9.24152 119.986 8.7962 120.189 8.39138C120.392 7.98655 120.636 7.62221 120.921 7.33883C121.246 7.05545 121.571 6.81255 121.977 6.65061C122.384 6.48868 122.831 6.40771 123.278 6.40771C123.969 6.40771 124.578 6.61013 125.107 7.01496C125.635 7.41979 125.919 8.02703 125.919 8.87717C125.919 9.32249 125.838 9.7678 125.635 10.1726C125.432 10.5775 125.188 10.9418 124.903 11.2252C124.578 11.5086 124.253 11.7515 123.847 11.9134C123.44 12.0753 122.993 12.1563 122.546 12.1563Z" fill="white"/>
<path d="M127.829 15.0309C128.195 14.9095 128.601 14.788 129.048 14.6666C129.495 14.5451 129.983 14.3832 130.552 14.2618C131.121 14.1403 131.731 14.0594 132.422 13.9784C133.112 13.8974 133.885 13.8569 134.779 13.8569C137.339 13.8569 139.127 14.5856 140.103 16.0835C141.078 17.5814 141.241 19.6055 140.631 22.1964L138.396 31.5075H133.478L135.632 22.3988C135.754 21.8321 135.876 21.2653 135.957 20.739C136.039 20.2128 136.039 19.727 135.957 19.3221C135.876 18.9173 135.673 18.5934 135.348 18.3505C135.023 18.1076 134.535 17.9862 133.885 17.9862C133.234 17.9862 132.584 18.0672 131.934 18.1886L128.723 31.548H123.806L127.829 15.0309Z" fill="white"/>
</svg>
