<svg width="17" height="16" viewBox="0 0 17 16" fill="none" xmlns="../../external.html?link=http://www.w3.org/2000/svg">
<g clip-path="url(#clip0_1607_9620)">
<path d="M13 0H4C2.067 0 0.5 1.567 0.5 3.5V12.5C0.5 14.433 2.067 16 4 16H13C14.933 16 16.5 14.433 16.5 12.5V3.5C16.5 1.567 14.933 0 13 0Z" fill="#33CD7C"/>
<path d="M15.0311 7.99998L8.5 1.46887L1.9689 7.99998L8.5 14.5311L15.0311 7.99998Z" fill="#F2D23F"/>
<path d="M8.49984 10.7065C9.99481 10.7065 11.2067 9.49457 11.2067 7.9996C11.2067 6.50463 9.99481 5.29272 8.49984 5.29272C7.00488 5.29272 5.79297 6.50463 5.79297 7.9996C5.79297 9.49457 7.00488 10.7065 8.49984 10.7065Z" fill="#41479B"/>
<path d="M6.17819 6.61517C6.05047 6.82895 5.95188 7.06136 5.88672 7.30804C7.38731 7.1951 9.60709 7.61488 11.02 8.98585C11.1122 8.75044 11.1731 8.49969 11.1959 8.23754C9.737 7.00976 7.72013 6.57314 6.17819 6.61517Z" fill="#F5F5F5"/>
<path d="M8.61325 8.92344L8.68531 9.13953L8.91312 9.14128C8.94262 9.1415 8.95484 9.17916 8.93112 9.19666L8.74787 9.332L8.81659 9.54919C8.8255 9.57732 8.79347 9.60057 8.76947 9.58341L8.58412 9.45094L8.39878 9.58341C8.37478 9.60057 8.34278 9.57729 8.35166 9.54919L8.42037 9.332L8.23713 9.19669C8.21341 9.17916 8.22563 9.14153 8.25513 9.14132L8.48294 9.13957L8.555 8.92347C8.56434 8.89547 8.60394 8.89547 8.61325 8.92344Z" fill="#F5F5F5"/>
<path d="M9.49936 9.48241L9.53039 9.57544L9.62842 9.57619C9.64111 9.57629 9.64639 9.59251 9.63617 9.60004L9.5573 9.65829L9.58686 9.75175C9.59067 9.76385 9.57689 9.77388 9.56658 9.76647L9.48679 9.70947L9.40701 9.76647C9.39667 9.77385 9.38289 9.76385 9.38673 9.75175L9.41629 9.65829L9.33742 9.60004C9.3272 9.59251 9.33248 9.57629 9.34517 9.57619L9.44323 9.57544L9.47426 9.48241C9.47833 9.47038 9.49536 9.47038 9.49936 9.48241Z" fill="#F5F5F5"/>
<path d="M8.22982 8.51305L8.26085 8.60608L8.35889 8.60683C8.37157 8.60693 8.37685 8.62315 8.36663 8.63068L8.28776 8.68893L8.31732 8.78239C8.32117 8.79449 8.30739 8.80452 8.29704 8.79711L8.21726 8.74011L8.13748 8.79711C8.12717 8.80449 8.11339 8.79449 8.1172 8.78239L8.14676 8.68893L8.06789 8.63068C8.05767 8.62315 8.06295 8.60693 8.07564 8.60683L8.17367 8.60608L8.2047 8.51305C8.20876 8.50102 8.22579 8.50102 8.22982 8.51305Z" fill="#F5F5F5"/>
<path d="M6.513 8.40004L6.54403 8.49307L6.64206 8.49382C6.65474 8.49391 6.66003 8.5101 6.64981 8.51766L6.57093 8.57591L6.60049 8.66938C6.60431 8.68147 6.59056 8.6915 6.58021 8.6841L6.50043 8.6271L6.42065 8.6841C6.41031 8.69147 6.39656 8.68147 6.40037 8.66938L6.42997 8.57591L6.35109 8.51766C6.34087 8.51013 6.34615 8.49391 6.35884 8.49382L6.45687 8.49307L6.4879 8.40004C6.49193 8.38798 6.509 8.38798 6.513 8.40004Z" fill="#F5F5F5"/>
<path d="M7.9505 9.45043L7.98153 9.54346L8.07959 9.54421C8.09228 9.5443 8.09756 9.56052 8.08734 9.56805L8.00846 9.62631L8.03803 9.71977C8.04187 9.73187 8.02809 9.7419 8.01775 9.73449L7.93796 9.67749L7.85818 9.73449C7.84787 9.74187 7.83409 9.73187 7.8379 9.71977L7.86747 9.62631L7.78859 9.56805C7.77837 9.56052 7.78365 9.5443 7.79634 9.54421L7.89437 9.54346L7.9254 9.45043C7.92946 9.4384 7.9465 9.4384 7.9505 9.45043Z" fill="#F5F5F5"/>
<path d="M7.15824 8.33502L7.18361 8.41108L7.2638 8.41171C7.27417 8.4118 7.27849 8.42505 7.27014 8.43121L7.20564 8.47883L7.22983 8.55527C7.23295 8.56518 7.2217 8.57337 7.21324 8.56733L7.14802 8.52071L7.0828 8.56733C7.07436 8.57337 7.06308 8.56518 7.0662 8.55527L7.09039 8.47883L7.02589 8.43121C7.01755 8.42505 7.02183 8.4118 7.03223 8.41171L7.11242 8.41108L7.1378 8.33502C7.14102 8.32518 7.15495 8.32518 7.15824 8.33502Z" fill="#F5F5F5"/>
<path d="M9.56758 6.76522L9.5993 6.86034L9.69958 6.86112C9.71255 6.86121 9.71796 6.87778 9.70749 6.8855L9.62683 6.94506L9.65708 7.04068C9.66099 7.05306 9.64689 7.06331 9.63633 7.05574L9.55474 6.99743L9.47315 7.05574C9.46259 7.06331 9.44849 7.05306 9.4524 7.04068L9.48265 6.94506L9.40199 6.8855C9.39156 6.87778 9.39693 6.86121 9.4099 6.86112L9.51018 6.86034L9.5419 6.76522C9.54605 6.7529 9.56346 6.7529 9.56758 6.76522Z" fill="#F5F5F5"/>
<path d="M6.62311 7.87005L6.64848 7.94612L6.72867 7.94674C6.73905 7.94684 6.74336 7.96005 6.73502 7.96624L6.67052 8.01387L6.6947 8.09031C6.69783 8.10021 6.68658 8.1084 6.67811 8.10237L6.61286 8.05574L6.54764 8.10237C6.5392 8.1084 6.52792 8.10021 6.53105 8.09031L6.55523 8.01387L6.49073 7.96624C6.48239 7.96009 6.48667 7.94684 6.49708 7.94674L6.57727 7.94612L6.60264 7.87005C6.60592 7.86021 6.61983 7.86021 6.62311 7.87005Z" fill="#F5F5F5"/>
<path d="M7.00991 8.94184L7.04832 9.05703L7.16975 9.05797C7.18547 9.0581 7.192 9.07816 7.17935 9.0875L7.08166 9.15963L7.11829 9.27541C7.12304 9.29041 7.10597 9.30279 7.09316 9.29366L6.99438 9.22304L6.8956 9.29366C6.88282 9.30279 6.86575 9.29041 6.87047 9.27541L6.9071 9.15963L6.80941 9.0875C6.79675 9.07816 6.80329 9.0581 6.819 9.05797L6.94044 9.05703L6.97885 8.94184C6.98385 8.92694 7.00494 8.92694 7.00991 8.94184Z" fill="#F5F5F5"/>
<path d="M9.99175 9.50691L10.0159 9.57938L10.0923 9.57997C10.1022 9.58003 10.1063 9.59266 10.0983 9.59853L10.0369 9.6439L10.0599 9.71675C10.0629 9.72618 10.0522 9.73396 10.0441 9.72821L9.98193 9.68378L9.91978 9.72821C9.91172 9.73396 9.901 9.72615 9.90397 9.71675L9.927 9.6439L9.86553 9.59853C9.85756 9.59266 9.86168 9.58003 9.87156 9.57997L9.94796 9.57938L9.97212 9.50691C9.97534 9.49753 9.98862 9.49753 9.99175 9.50691Z" fill="#F5F5F5"/>
<path d="M10.2591 8.95373L10.2901 9.04676L10.3882 9.04751C10.4009 9.0476 10.4061 9.06382 10.3959 9.07135L10.3171 9.1296L10.3466 9.2231C10.3505 9.23519 10.3367 9.24522 10.3263 9.23782L10.2466 9.18082L10.1668 9.23782C10.1564 9.24519 10.1427 9.23519 10.1465 9.2231L10.1761 9.1296L10.0972 9.07135C10.087 9.06382 10.0922 9.0476 10.1049 9.04751L10.203 9.04676L10.234 8.95373C10.2381 8.94169 10.2551 8.94169 10.2591 8.95373Z" fill="#F5F5F5"/>
</g>
<defs>
<clipPath id="clip0_1607_9620">
<rect width="16" height="16" fill="white" transform="translate(0.5)"/>
</clipPath>
</defs>
</svg>
