<svg width="48" height="48" viewBox="0 0 48 48" fill="none" xmlns="../../external.html?link=http://www.w3.org/2000/svg">
<path d="M24 48C37.2548 48 48 37.2548 48 24C48 10.7452 37.2548 0 24 0C10.7452 0 0 10.7452 0 24C0 37.2548 10.7452 48 24 48Z" fill="#00C85F"/>
<path d="M23.0826 9.73993L2.68882 23.3358C2.19748 23.6635 2.19748 24.3855 2.68882 24.713L23.0826 38.3088C23.6386 38.6795 24.3629 38.6795 24.9188 38.3088L45.3126 24.713C45.804 24.3854 45.804 23.6634 45.3126 23.3358L24.9188 9.73993C24.3629 9.36924 23.6386 9.36924 23.0826 9.73993Z" fill="#FFF046"/>
<path d="M23.9994 33.9309C29.4841 33.9309 33.9304 29.4846 33.9304 23.9999C33.9304 18.5151 29.4841 14.0688 23.9994 14.0688C18.5146 14.0688 14.0684 18.5151 14.0684 23.9999C14.0684 29.4846 18.5146 33.9309 23.9994 33.9309Z" fill="#4B82E1"/>
<path d="M15.5164 18.8557C15.1911 19.3909 14.9161 19.9583 14.6953 20.5536C19.3083 20.24 26.7109 21.0616 33.2112 27.6984C33.443 27.1217 33.6241 26.5199 33.7448 25.8956C27.3832 19.7947 20.3185 18.6991 15.5164 18.8557Z" fill="white"/>
</svg>
