<svg width="242" height="264" viewBox="0 0 242 264" fill="none" xmlns="../../external.html?link=http://www.w3.org/2000/svg">
<path d="M210.904 201.629C215.544 204.296 215.544 208.702 210.904 211.253L125.292 261.112C120.768 263.779 113.344 263.779 108.703 261.112L30.9801 216.239C26.34 213.572 26.34 209.166 30.9801 206.615L116.592 156.756C121.116 154.089 128.54 154.089 133.181 156.756L210.904 201.629Z" fill="#FFCE00"/>
<path d="M117.636 226.675C116.592 226.095 115.432 224.587 115.316 222.848C115.316 222.036 115.548 221.341 116.012 221.109L108.704 225.399C108.24 225.631 107.892 226.327 108.008 227.138C108.124 228.878 109.284 230.385 110.328 230.965C111.024 231.429 111.836 231.545 112.416 231.313L119.724 227.022C119.144 227.254 118.448 227.138 117.636 226.675Z" fill="url(#paint0_linear)"/>
<path d="M117.752 213.224C115.2 211.717 112.88 211.601 111.14 212.644L103.831 216.935C105.571 215.891 107.891 216.123 110.444 217.514C116.012 220.761 120.42 228.414 119.956 234.559C119.84 237.11 118.796 238.965 117.172 239.893L124.48 235.603C126.104 234.675 127.148 232.82 127.264 230.269C127.612 224.124 123.32 216.471 117.752 213.224Z" fill="url(#paint1_linear)"/>
<path d="M110.328 217.514C115.896 220.761 120.304 228.414 119.84 234.559C119.492 239.777 115.664 241.98 110.908 239.661C110.676 239.545 110.444 239.429 110.212 239.313C104.991 236.299 100.931 229.11 100.931 222.964C101.047 216.935 105.223 214.5 110.328 217.514ZM110.328 230.965C111.604 231.66 112.996 231.776 112.996 229.805C112.996 228.298 111.836 226.443 110.328 225.515C110.212 225.515 110.212 225.399 110.096 225.399C108.819 224.703 107.891 225.631 107.891 227.138C108.007 228.878 109.284 230.269 110.328 230.965Z" fill="#1B1B1B"/>
<path d="M169.374 196.527C168.33 195.947 167.17 194.44 167.054 192.701C167.054 191.889 167.286 191.193 167.75 190.961L160.442 195.252C159.978 195.484 159.63 196.179 159.746 196.991C159.862 198.73 161.022 200.238 162.066 200.817C162.762 201.281 163.574 201.397 164.154 201.165L171.462 196.875C170.882 197.223 170.186 196.991 169.374 196.527Z" fill="url(#paint2_linear)"/>
<path d="M169.49 183.193C166.938 181.685 164.618 181.569 162.878 182.613L155.57 186.903C157.31 185.86 159.63 186.091 162.182 187.483C167.75 190.73 172.158 198.382 171.694 204.528C171.578 207.079 170.534 208.934 168.91 209.862L176.218 205.571C177.843 204.644 178.887 202.789 179.003 200.238C179.351 193.976 175.058 186.439 169.49 183.193Z" fill="url(#paint3_linear)"/>
<path d="M162.066 187.367C167.634 190.614 172.042 198.266 171.578 204.412C171.23 209.63 167.402 211.833 162.646 209.514C162.414 209.398 162.182 209.282 161.95 209.166C156.73 206.151 152.669 198.962 152.669 192.817C152.785 186.903 156.962 184.468 162.066 187.367ZM162.066 200.817C163.342 201.513 164.734 201.629 164.734 199.658C164.734 198.15 163.574 196.295 162.066 195.368C161.95 195.368 161.95 195.252 161.834 195.252C160.558 194.556 159.63 195.484 159.63 196.991C159.862 198.73 161.022 200.238 162.066 200.817Z" fill="#1B1B1B"/>
<path d="M88.6345 209.514C87.5905 208.934 86.4304 207.427 86.3144 205.687C86.3144 204.876 86.5464 204.18 87.0105 203.948L79.7022 208.238C79.2381 208.47 78.8901 209.166 79.0061 209.977C79.1221 211.717 80.2822 213.224 81.3262 213.804C82.0223 214.268 82.8343 214.384 83.4143 214.152L90.7226 209.862C90.1426 210.209 89.4466 209.977 88.6345 209.514Z" fill="url(#paint4_linear)"/>
<path d="M88.7507 196.063C86.1986 194.556 83.8785 194.44 82.1384 195.484L74.8301 199.774C76.5702 198.73 78.8903 198.962 81.4424 200.354C87.0106 203.6 91.4188 211.253 90.9548 217.398C90.8388 219.949 89.7947 221.805 88.1706 222.732L95.479 218.442C97.103 217.514 98.1471 215.659 98.2631 213.108C98.6111 206.963 94.3189 199.31 88.7507 196.063Z" fill="url(#paint5_linear)"/>
<path d="M81.3263 200.354C86.8946 203.6 91.3028 211.253 90.8387 217.398C90.4907 222.616 86.6626 224.819 81.9064 222.5C81.6743 222.384 81.4423 222.268 81.2103 222.152C75.9901 219.138 71.9299 211.949 71.9299 205.803C72.0459 199.774 76.2221 197.455 81.3263 200.354ZM81.3263 213.804C82.6024 214.5 83.9944 214.616 83.9944 212.644C83.9944 211.137 82.8344 209.282 81.3263 208.354C81.2103 208.354 81.2103 208.238 81.0943 208.238C79.8183 207.543 78.7742 208.47 78.8902 209.978C79.0062 211.717 80.2823 213.224 81.3263 213.804Z" fill="#1B1B1B"/>
<path d="M68.9138 177.627L127.612 143.537L128.54 148.871L69.7259 182.961L68.9138 177.627Z" fill="#131313"/>
<path d="M120.304 97.9682L117.752 81.0393C117.056 78.4883 115.896 76.4012 114.272 74.7779L104.295 63.8784C103.715 63.2987 103.251 62.8349 102.671 62.487C101.859 62.0232 100.931 61.9073 100.235 62.2551L41.5366 96.4609C42.2327 96.113 43.0447 96.113 43.9727 96.6928C44.5527 97.0406 45.0168 97.5044 45.5968 98.0842L55.5732 108.984C57.1973 110.607 58.2413 112.694 59.0534 115.245L61.6055 132.174L67.4057 168.815L126.22 134.725L120.304 97.9682Z" fill="url(#paint6_linear)"/>
<path d="M182.599 180.062L128.54 148.871L69.7258 182.961L123.784 214.152C126.104 215.427 127.38 218.326 127.38 220.413C127.38 221.457 127.032 222.384 126.336 222.848L185.151 188.758C185.847 188.41 186.195 187.483 186.195 186.323C186.079 184.236 184.919 181.337 182.599 180.062Z" fill="url(#paint7_linear)"/>
<path d="M67.2898 168.699L125.988 134.609L182.135 166.959L123.436 201.165L67.2898 168.699Z" fill="#303030"/>
<path opacity="0.32" d="M165.662 158.495L125.524 135.653C125.06 135.421 124.828 134.957 124.712 134.493C123.9 129.507 119.376 101.331 119.376 101.331C119.144 99.5915 120.768 98.0842 119.144 98.3161C117.404 98.548 116.244 100.055 116.476 101.795L120.072 134.493C120.188 135.537 120.42 137.044 121.812 138.319C122.044 138.551 122.276 138.783 122.624 138.899L163.69 162.785C163.69 162.785 163.69 162.785 163.574 162.785C163.806 162.901 164.038 162.901 164.386 162.785L165.082 162.321C165.662 161.974 166.126 161.162 166.126 160.582V159.075C165.894 158.843 165.778 158.611 165.662 158.495Z" fill="url(#paint8_linear)"/>
<path opacity="0.32" d="M112.532 192.585L73.4378 165.684C72.9738 165.452 72.7418 164.988 72.6258 164.524C71.8138 159.539 66.2455 135.537 66.2455 135.537C66.0135 133.797 67.6376 132.29 66.0135 132.522C64.2734 132.754 63.1134 134.261 63.3454 136L67.9856 164.524C68.1016 165.568 68.3336 167.075 69.7257 168.351C69.9577 168.583 70.1897 168.815 70.5377 168.931L110.559 196.991C110.559 196.991 110.559 196.991 110.443 196.991C110.675 197.107 110.907 197.107 111.255 196.991L111.951 196.527C112.532 196.179 112.996 195.368 112.996 194.788V193.28C112.764 192.933 112.648 192.701 112.532 192.585Z" fill="url(#paint9_linear)"/>
<path d="M193.619 133.681C193.387 133.449 193.039 133.218 192.691 132.986C191.647 132.406 190.371 132.174 189.443 132.754L130.744 166.959C131.672 166.38 133.064 166.612 133.993 167.191C134.341 167.423 134.689 167.655 134.921 167.887C137.473 170.438 137.009 173.685 136.661 175.54L130.164 207.774C129.932 208.818 129.352 209.63 128.54 210.093L187.355 176.004C188.167 175.54 188.631 174.728 188.979 173.685L195.475 141.45C195.707 139.479 196.171 136.348 193.619 133.681Z" fill="url(#paint10_linear)"/>
<path d="M43.9727 96.6928C44.5527 97.0406 45.0167 97.5044 45.5967 98.0842L55.5732 108.984C57.1972 110.607 58.2413 112.694 59.0533 115.245L61.6054 132.174L67.4057 168.815L123.552 201.165L129.584 168.931C130.048 166.264 132.484 166.264 134.109 167.191C134.457 167.423 134.805 167.655 135.037 167.887C137.589 170.438 137.125 173.685 136.777 175.54L130.28 207.774C129.584 210.441 127.264 211.253 124.596 209.746L69.0298 177.743L69.8418 183.077L123.784 214.152C126.104 215.427 127.38 218.326 127.38 220.413C127.38 222.384 126.104 223.892 123.784 222.5L68.6817 190.73C65.8976 189.106 63.4615 185.396 62.7655 181.685L52.557 118.028C52.093 115.477 50.817 112.694 48.9609 110.723L42.5806 103.766C41.0726 102.142 40.2605 100.055 40.4925 98.2001C40.6085 97.5044 40.8405 97.0406 41.1886 96.6928C42.0006 96.113 42.9286 96.113 43.9727 96.6928Z" fill="#1B1B1B"/>
<path d="M119.608 97.1565C119.376 97.0406 119.028 97.0406 118.68 97.2725L117.752 97.8523C117.056 98.3161 116.36 99.3596 116.36 100.171V102.142C116.36 102.606 116.476 102.838 116.824 102.954L178.771 139.015L185.151 135.305L119.608 97.1565Z" fill="url(#paint11_linear)"/>
<path d="M191.995 164.177C191.995 164.177 191.995 164.293 192.111 164.293C192.111 164.293 192.111 164.177 191.995 164.177ZM191.879 163.597C191.879 163.713 191.879 163.829 191.879 163.945C191.879 163.713 191.879 163.597 191.879 163.597ZM191.879 163.945V164.061C191.995 164.061 191.995 163.945 191.879 163.945ZM194.663 158.495C194.779 158.495 194.779 158.495 194.663 158.495C194.779 158.495 194.779 158.495 194.663 158.495ZM195.011 158.611C195.011 158.611 195.011 158.495 195.011 158.611C195.011 158.495 195.011 158.611 195.011 158.611ZM121.696 115.941C121.464 115.825 121.116 115.825 120.768 116.057L119.84 116.636C119.144 117.1 118.448 118.144 118.448 118.955V120.927C118.448 121.39 118.564 121.622 118.796 121.738L163.574 147.827L169.954 144.117L121.696 115.941Z" fill="url(#paint12_linear)"/>
<path d="M66.4776 132.638C66.2456 132.522 65.8976 132.522 65.5496 132.754L64.6216 133.333C63.9255 133.797 63.2295 134.841 63.2295 135.652V137.624C63.2295 138.087 63.3455 138.319 63.5775 138.551L128.192 176.12L129.468 169.394L66.4776 132.638Z" fill="url(#paint13_linear)"/>
<path d="M69.6097 150.378C69.3777 150.262 69.0297 150.262 68.6817 150.494L67.7536 151.074C67.0576 151.538 66.3616 152.581 66.3616 153.393V155.364C66.3616 155.828 66.4776 156.06 66.7096 156.292L125.408 190.382L126.684 183.656L69.6097 150.378Z" fill="url(#paint14_linear)"/>
<path opacity="0.44" d="M238.404 47.9937L133.065 2.88853C128.424 0.221645 120.884 0.221645 116.476 2.88853L3.48015 52.7477C1.27605 54.1392 0 55.7625 0 57.5017L27.5 211.138C27.5 212.993 28.66 214.616 30.9801 215.892L108.819 260.765C113.46 263.432 121 263.432 125.408 260.765L211.02 210.906C213.224 209.514 214.5 207.891 214.5 206.152L242 52.6318C241.768 51.0085 240.608 49.2692 238.404 47.9937Z" fill="url(#paint15_linear)"/>
<defs>
<linearGradient id="paint0_linear" x1="117.095" y1="230.872" x2="109.258" y2="221.508" gradientUnits="userSpaceOnUse">
<stop stop-color="#1B1B1B"/>
<stop offset="0.278" stop-color="#1B1B1B"/>
<stop offset="0.5973" stop-color="#303030"/>
<stop offset="1" stop-color="#303030"/>
</linearGradient>
<linearGradient id="paint1_linear" x1="103.736" y1="225.929" x2="127.274" y2="225.929" gradientUnits="userSpaceOnUse">
<stop stop-color="#1B1B1B"/>
<stop offset="0.4794" stop-color="#1B1B1B"/>
<stop offset="0.8492" stop-color="#303030"/>
<stop offset="1" stop-color="#303030"/>
</linearGradient>
<linearGradient id="paint2_linear" x1="159.711" y1="196.156" x2="171.454" y2="196.156" gradientUnits="userSpaceOnUse">
<stop stop-color="#1B1B1B"/>
<stop offset="0.4794" stop-color="#1B1B1B"/>
<stop offset="0.5973" stop-color="#303030"/>
<stop offset="1" stop-color="#303030"/>
</linearGradient>
<linearGradient id="paint3_linear" x1="165.83" y1="188.21" x2="174.893" y2="208.722" gradientUnits="userSpaceOnUse">
<stop stop-color="#1B1B1B"/>
<stop offset="0.4794" stop-color="#1B1B1B"/>
<stop offset="0.8492" stop-color="#303030"/>
<stop offset="1" stop-color="#303030"/>
</linearGradient>
<linearGradient id="paint4_linear" x1="87.1069" y1="214.616" x2="81.8835" y2="204.818" gradientUnits="userSpaceOnUse">
<stop stop-color="#1B1B1B"/>
<stop offset="0.278" stop-color="#1B1B1B"/>
<stop offset="0.5973" stop-color="#303030"/>
<stop offset="1" stop-color="#303030"/>
</linearGradient>
<linearGradient id="paint5_linear" x1="74.7354" y1="208.802" x2="98.272" y2="208.802" gradientUnits="userSpaceOnUse">
<stop stop-color="#1B1B1B"/>
<stop offset="0.4794" stop-color="#1B1B1B"/>
<stop offset="0.8492" stop-color="#303030"/>
<stop offset="1" stop-color="#303030"/>
</linearGradient>
<linearGradient id="paint6_linear" x1="89.8201" y1="119.767" x2="67.2424" y2="80.7856" gradientUnits="userSpaceOnUse">
<stop stop-color="#161616"/>
<stop offset="0.4794" stop-color="#161616"/>
<stop offset="0.5973" stop-color="#303030"/>
<stop offset="1" stop-color="#303030"/>
</linearGradient>
<linearGradient id="paint7_linear" x1="135.443" y1="196.523" x2="147.456" y2="217.076" gradientUnits="userSpaceOnUse">
<stop stop-color="#101010"/>
<stop offset="0.4794" stop-color="#1B1B1B"/>
<stop offset="0.5973" stop-color="#303030"/>
<stop offset="1" stop-color="#303030"/>
</linearGradient>
<linearGradient id="paint8_linear" x1="150.697" y1="150.149" x2="130.803" y2="129.119" gradientUnits="userSpaceOnUse">
<stop offset="0.1507" stop-color="#0D0D0D" stop-opacity="0"/>
<stop offset="0.442" stop-color="#0A0A0A" stop-opacity="0.4"/>
<stop offset="0.7957" stop-color="#0A0A0A"/>
</linearGradient>
<linearGradient id="paint9_linear" x1="93.6705" y1="184.671" x2="79.2742" y2="162.472" gradientUnits="userSpaceOnUse">
<stop offset="0.0310656" stop-color="#0D0D0D" stop-opacity="0"/>
<stop offset="0.1507" stop-color="#0D0D0D" stop-opacity="0"/>
<stop offset="0.442" stop-color="#0A0A0A" stop-opacity="0.4"/>
<stop offset="0.7957" stop-color="#0A0A0A"/>
</linearGradient>
<linearGradient id="paint10_linear" x1="146.946" y1="148.457" x2="158.832" y2="168.041" gradientUnits="userSpaceOnUse">
<stop stop-color="#1B1B1B"/>
<stop offset="0.4794" stop-color="#1B1B1B"/>
<stop offset="0.5973" stop-color="#303030"/>
<stop offset="1" stop-color="#303030"/>
</linearGradient>
<linearGradient id="paint11_linear" x1="151.723" y1="115.727" x2="148.394" y2="121.496" gradientUnits="userSpaceOnUse">
<stop stop-color="#1B1B1B"/>
<stop offset="0.4297" stop-color="#303030"/>
<stop offset="0.4794" stop-color="#1B1B1B"/>
<stop offset="1" stop-color="#D0A919"/>
</linearGradient>
<linearGradient id="paint12_linear" x1="157.85" y1="136.811" x2="154.518" y2="142.585" gradientUnits="userSpaceOnUse">
<stop stop-color="#1B1B1B"/>
<stop offset="0.4297" stop-color="#303030"/>
<stop offset="0.4794" stop-color="#1B1B1B"/>
<stop offset="1" stop-color="#D0A919"/>
</linearGradient>
<linearGradient id="paint13_linear" x1="97.9773" y1="151.473" x2="94.4723" y2="157.53" gradientUnits="userSpaceOnUse">
<stop stop-color="#1B1B1B"/>
<stop offset="0.4297" stop-color="#303030"/>
<stop offset="0.4794" stop-color="#1B1B1B"/>
<stop offset="1" stop-color="#D0A919"/>
</linearGradient>
<linearGradient id="paint14_linear" x1="98.4658" y1="166.991" x2="95.1402" y2="172.754" gradientUnits="userSpaceOnUse">
<stop stop-color="#1B1B1B"/>
<stop offset="0.4297" stop-color="#303030"/>
<stop offset="0.4794" stop-color="#1B1B1B"/>
<stop offset="1" stop-color="#D0A919"/>
</linearGradient>
<linearGradient id="paint15_linear" x1="120.996" y1="203.642" x2="120.996" y2="97.5407" gradientUnits="userSpaceOnUse">
<stop stop-color="#FFBB13" stop-opacity="0.63"/>
<stop offset="0.4323" stop-color="#FFB905" stop-opacity="0.22"/>
<stop offset="0.9635" stop-color="#FFE101" stop-opacity="0"/>
</linearGradient>
</defs>
</svg>
