<svg width="48" height="48" viewBox="0 0 48 48" fill="none" xmlns="../../external.html?link=http://www.w3.org/2000/svg">
<circle cx="24" cy="24" r="24" fill="#8063BF"/>
<g clip-path="url(#clip0_1429_11)">
<path d="M27.9339 14.9999L27.9072 15.0236L27.9695 14.9999H27.9339ZM34.5022 17.1545C31.3694 15.1262 28.4501 15.0315 27.8983 15.0315L27.5423 15.3393C31.4762 16.3337 33.4164 17.8806 33.4698 17.9279C27.6758 15.3945 21.41 15.2525 15.6783 17.2492C14.8061 17.5807 14.2899 17.8017 14.2632 17.8175C14.3255 17.7622 16.2568 16.1206 20.4488 15.2288L20.1907 14.9999C20.1907 14.9999 16.9688 14.8894 13.48 17.1387C13.48 17.1387 10 22.4344 10 28.9614C10 28.9614 11.9313 31.8894 17.2181 31.9999C17.2181 31.9999 17.9924 31.1002 18.7756 30.311C15.8474 29.5375 14.6815 27.9985 14.6459 27.9512L15.6427 28.401C18.5442 29.4507 21.6236 30.7687 27.0973 29.9795C28.2543 29.7506 29.4113 29.5296 30.5683 29.0798C31.3249 28.7404 32.2505 28.4089 33.2651 27.8407C33.2295 27.888 32.0636 29.427 29.0108 30.2005C29.6516 30.9818 30.5416 31.8815 30.5416 31.8815C35.8373 31.7789 37.8932 28.8509 38.0089 28.9772C38 22.4581 34.5022 17.1545 34.5022 17.1545ZM19.541 26.9331C18.1882 26.9331 17.0935 25.9228 17.0935 24.6838C17.0935 23.4368 18.1882 22.4344 19.541 22.4344L19.5499 22.4266C20.9027 22.4266 21.9886 23.4368 21.9886 24.6759C21.9886 25.9228 20.8938 26.9331 19.541 26.9331ZM28.3077 26.9331C26.9549 26.9331 25.8601 25.9228 25.8601 24.6838C25.8601 23.4368 26.9638 22.4344 28.3077 22.4344V22.4266C29.6605 22.4266 30.7552 23.4368 30.7552 24.6759C30.7641 25.9228 29.6605 26.9331 28.3077 26.9331Z" fill="#E8DCFF"/>
</g>
<defs>
<clipPath id="clip0_1429_11">
<rect width="28" height="17" fill="white" transform="translate(10 15)"/>
</clipPath>
</defs>
</svg>
