<svg width="17" height="16" viewBox="0 0 17 16" fill="none" xmlns="../../external.html?link=http://www.w3.org/2000/svg">
<g clip-path="url(#clip0_1607_4741)">
<path d="M16.5 3.69189H0.5V4.92252H16.5V3.69189Z" fill="#F5F5F5"/>
<path d="M15.6641 1.23083H1.33509C1.03172 1.58671 0.79825 2.00399 0.65625 2.46162H16.3429C16.2009 2.00399 15.9675 1.58671 15.6641 1.23083Z" fill="#F5F5F5"/>
<path d="M16.5 6.15369H0.5V7.38431H16.5V6.15369Z" fill="#F5F5F5"/>
<path d="M16.5 8.61548H0.5V9.8461H16.5V8.61548Z" fill="#F5F5F5"/>
<path d="M16.5 11.0773H0.5V12.3079H16.5V11.0773Z" fill="#F5F5F5"/>
<path d="M16.3429 13.5387H0.65625C0.798219 13.9963 1.03172 14.4136 1.33509 14.7694H15.6641C15.9675 14.4136 16.2009 13.9963 16.3429 13.5387Z" fill="#F5F5F5"/>
<path d="M13.0004 0H4.00044C2.93331 0 1.97791 0.477719 1.33594 1.23078H15.6649C15.023 0.477719 14.0676 0 13.0004 0Z" fill="#FF4B55"/>
<path d="M16.5 4.92358H0.5V6.15421H16.5V4.92358Z" fill="#FF4B55"/>
<path d="M16.5 3.50023C16.5 3.13864 16.4452 2.78989 16.3433 2.46179H0.656656C0.554844 2.78989 0.5 3.13864 0.5 3.50023V3.69254H16.5V3.50023Z" fill="#FF4B55"/>
<path d="M16.5 7.3844H0.5V8.61502H16.5V7.3844Z" fill="#FF4B55"/>
<path d="M16.5 12.5002V12.3079H0.5V12.5002C0.5 12.8618 0.554844 13.2105 0.656656 13.5386H16.3433C16.4452 13.2105 16.5 12.8618 16.5 12.5002Z" fill="#FF4B55"/>
<path d="M15.6649 14.769H1.33594C1.97791 15.5221 2.93331 15.9998 4.00044 15.9998H13.0004C14.0676 15.9998 15.023 15.5221 15.6649 14.769Z" fill="#FF4B55"/>
<path d="M16.5 9.84619H0.5V11.0768H16.5V9.84619Z" fill="#FF4B55"/>
<path d="M9.11537 0H4C2.067 0 0.5 1.567 0.5 3.5V8.61537H9.11537V0Z" fill="#41479B"/>
<path d="M1.42913 1.34583C1.42095 1.37174 1.45042 1.39318 1.47254 1.37736L1.64326 1.25536L1.81398 1.37736C1.83607 1.39318 1.86557 1.37174 1.85738 1.34583L1.7941 1.14577L1.96291 1.02111C1.98476 1.00496 1.97351 0.970302 1.94632 0.970084L1.73651 0.968459L1.7007 0.861084C1.61076 0.93949 1.52498 1.02249 1.44351 1.10958L1.49248 1.14577L1.42913 1.34583Z" fill="#F5F5F5"/>
<path d="M1.67056 2.42961L1.73693 2.62868L1.94675 2.6303C1.9739 2.63052 1.98519 2.66518 1.96334 2.68133L1.79453 2.80599L1.85781 3.00605C1.866 3.03196 1.83653 3.05337 1.8144 3.03758L1.64368 2.91555L1.47297 3.03758C1.45087 3.0534 1.42137 3.03196 1.42956 3.00605L1.49284 2.80599L1.32403 2.68133C1.30218 2.66521 1.31343 2.63052 1.34059 2.6303L1.5504 2.62868L1.61678 2.42961C1.6255 2.40383 1.66197 2.40383 1.67056 2.42961Z" fill="#F5F5F5"/>
<path d="M1.67056 4.2719L1.73693 4.47096L1.94675 4.47259C1.9739 4.4728 1.98519 4.50746 1.96334 4.52362L1.79453 4.64827L1.85781 4.84833C1.866 4.87424 1.83653 4.89565 1.8144 4.87986L1.64368 4.75787L1.47297 4.87986C1.45087 4.89565 1.42137 4.87424 1.42956 4.84833L1.49284 4.64827L1.32403 4.52362C1.30218 4.50749 1.31343 4.4728 1.34059 4.47259L1.5504 4.47096L1.61678 4.2719C1.6255 4.24612 1.66197 4.24612 1.67056 4.2719Z" fill="#F5F5F5"/>
<path d="M1.67056 5.96379L1.73693 6.16286L1.94675 6.16448C1.9739 6.1647 1.98519 6.19936 1.96334 6.21551L1.79453 6.34017L1.85781 6.54023C1.866 6.56614 1.83653 6.58754 1.8144 6.57176L1.64368 6.44973L1.47297 6.57176C1.45087 6.58754 1.42137 6.56614 1.42956 6.54023L1.49284 6.34017L1.32403 6.21551C1.30218 6.19939 1.31343 6.1647 1.34059 6.16448L1.5504 6.16286L1.61678 5.96379C1.6255 5.93801 1.66197 5.93801 1.67056 5.96379Z" fill="#F5F5F5"/>
<path d="M1.67056 7.50371L1.73693 7.70277L1.94675 7.7044C1.9739 7.70462 1.98519 7.73927 1.96334 7.75543L1.79453 7.88008L1.85781 8.08015C1.866 8.10605 1.83653 8.12746 1.8144 8.11168L1.64368 7.98968L1.47297 8.11168C1.45087 8.12746 1.42137 8.10605 1.42956 8.08015L1.49284 7.88008L1.32403 7.75543C1.30218 7.7393 1.31343 7.70462 1.34059 7.7044L1.5504 7.70277L1.61678 7.50371C1.6255 7.47793 1.66197 7.47793 1.67056 7.50371Z" fill="#F5F5F5"/>
<path d="M2.47906 1.55571L2.54543 1.75478L2.75524 1.7564C2.7824 1.75662 2.79368 1.79128 2.77184 1.8074L2.60303 1.93206L2.66631 2.13212C2.6745 2.15803 2.64503 2.17946 2.6229 2.16365L2.45225 2.04162L2.28153 2.16365C2.25943 2.17946 2.22993 2.15803 2.23812 2.13212L2.3014 1.93206L2.13262 1.8074C2.11078 1.79128 2.12203 1.75659 2.14918 1.7564L2.359 1.75478L2.42537 1.55571C2.434 1.52993 2.47046 1.52993 2.47906 1.55571Z" fill="#F5F5F5"/>
<path d="M2.47912 3.39714L2.5455 3.59621L2.75531 3.59783C2.78246 3.59805 2.79375 3.63271 2.7719 3.64886L2.60309 3.77352L2.66637 3.97358C2.67456 3.99949 2.64509 4.02093 2.62296 4.00511L2.45225 3.88308L2.28153 4.00511C2.25943 4.02093 2.22993 3.99949 2.23812 3.97358L2.3014 3.77352L2.13262 3.64886C2.11078 3.63274 2.12203 3.59805 2.14918 3.59783L2.359 3.59621L2.42537 3.39714C2.43406 3.37136 2.47053 3.37136 2.47912 3.39714Z" fill="#F5F5F5"/>
<path d="M2.47912 5.14663L2.5455 5.3457L2.75531 5.34732C2.78246 5.34754 2.79375 5.3822 2.7719 5.39835L2.60309 5.52301L2.66637 5.72307C2.67456 5.74898 2.64509 5.77038 2.62296 5.7546L2.45225 5.63257L2.28153 5.7546C2.25943 5.77042 2.22993 5.74898 2.23812 5.72307L2.3014 5.52301L2.13262 5.39835C2.11078 5.38223 2.12203 5.34754 2.14918 5.34732L2.359 5.3457L2.42537 5.14663C2.43406 5.12088 2.47053 5.12088 2.47912 5.14663Z" fill="#F5F5F5"/>
<path d="M2.47912 6.71794L2.5455 6.91701L2.75531 6.91863C2.78246 6.91885 2.79375 6.95351 2.7719 6.96966L2.60309 7.09432L2.66637 7.29438C2.67456 7.32028 2.64509 7.34172 2.62296 7.32591L2.45225 7.20391L2.28153 7.32591C2.25943 7.34172 2.22993 7.32028 2.23812 7.29438L2.3014 7.09432L2.13262 6.96966C2.11078 6.95354 2.12203 6.91885 2.14918 6.91863L2.359 6.91701L2.42537 6.71794C2.43406 6.69216 2.47053 6.69216 2.47912 6.71794Z" fill="#F5F5F5"/>
<path d="M3.28772 0.769313L3.35409 0.968375L3.5639 0.97C3.59106 0.970219 3.60234 1.00488 3.5805 1.021L3.41168 1.14566L3.47496 1.34572C3.48315 1.37163 3.45368 1.39303 3.43156 1.37725L3.26084 1.25522L3.09012 1.37725C3.06803 1.39306 3.03853 1.37163 3.04672 1.34572L3.11 1.14566L2.94122 1.021C2.91937 1.00488 2.93062 0.970188 2.95778 0.97L3.16759 0.968375L3.23397 0.769313C3.24265 0.743563 3.27912 0.743563 3.28772 0.769313Z" fill="#F5F5F5"/>
<path d="M3.28772 2.42961L3.35409 2.62868L3.5639 2.6303C3.59106 2.63052 3.60234 2.66518 3.5805 2.68133L3.41168 2.80599L3.47496 3.00605C3.48315 3.03196 3.45368 3.05337 3.43156 3.03758L3.26084 2.91555L3.09012 3.03758C3.06803 3.0534 3.03853 3.03196 3.04672 3.00605L3.11 2.80599L2.94122 2.68133C2.91937 2.66521 2.93062 2.63052 2.95778 2.6303L3.16759 2.62868L3.23397 2.42961C3.24265 2.40383 3.27912 2.40383 3.28772 2.42961Z" fill="#F5F5F5"/>
<path d="M3.28772 4.2719L3.35409 4.47096L3.5639 4.47259C3.59106 4.4728 3.60234 4.50746 3.5805 4.52362L3.41168 4.64827L3.47496 4.84833C3.48315 4.87424 3.45368 4.89565 3.43156 4.87986L3.26084 4.75787L3.09012 4.87986C3.06803 4.89565 3.03853 4.87424 3.04672 4.84833L3.11 4.64827L2.94122 4.52362C2.91937 4.50749 2.93062 4.4728 2.95778 4.47259L3.16759 4.47096L3.23397 4.2719C3.24265 4.24612 3.27912 4.24612 3.28772 4.2719Z" fill="#F5F5F5"/>
<path d="M3.28772 5.96379L3.35409 6.16286L3.5639 6.16448C3.59106 6.1647 3.60234 6.19936 3.5805 6.21551L3.41168 6.34017L3.47496 6.54023C3.48315 6.56614 3.45368 6.58754 3.43156 6.57176L3.26084 6.44973L3.09012 6.57176C3.06803 6.58754 3.03853 6.56614 3.04672 6.54023L3.11 6.34017L2.94122 6.21551C2.91937 6.19939 2.93062 6.1647 2.95778 6.16448L3.16759 6.16286L3.23397 5.96379C3.24265 5.93801 3.27912 5.93801 3.28772 5.96379Z" fill="#F5F5F5"/>
<path d="M3.28772 7.50371L3.35409 7.70277L3.5639 7.7044C3.59106 7.70462 3.60234 7.73927 3.5805 7.75543L3.41168 7.88008L3.47496 8.08015C3.48315 8.10605 3.45368 8.12746 3.43156 8.11168L3.26084 7.98968L3.09012 8.11168C3.06803 8.12746 3.03853 8.10605 3.04672 8.08015L3.11 7.88008L2.94122 7.75543C2.91937 7.7393 2.93062 7.70462 2.95778 7.7044L3.16759 7.70277L3.23397 7.50371C3.24265 7.47793 3.27912 7.47793 3.28772 7.50371Z" fill="#F5F5F5"/>
<path d="M4.09439 1.55571L4.16076 1.75478L4.37057 1.7564C4.39773 1.75662 4.40901 1.79128 4.38714 1.8074L4.21836 1.93206L4.28164 2.13212C4.28982 2.15803 4.26036 2.17946 4.23823 2.16365L4.06751 2.04162L3.89679 2.16365C3.8747 2.17946 3.8452 2.15803 3.85339 2.13212L3.91667 1.93206L3.74785 1.8074C3.72601 1.79128 3.73726 1.75659 3.76445 1.7564L3.97426 1.75478L4.04064 1.55571C4.04936 1.52993 4.08579 1.52993 4.09439 1.55571Z" fill="#F5F5F5"/>
<path d="M4.09439 3.39714L4.16076 3.59621L4.37057 3.59783C4.39773 3.59805 4.40901 3.63271 4.38714 3.64886L4.21836 3.77352L4.28164 3.97358C4.28982 3.99949 4.26036 4.02093 4.23823 4.00511L4.06751 3.88308L3.89679 4.00511C3.8747 4.02093 3.8452 3.99949 3.85339 3.97358L3.91667 3.77352L3.74785 3.64886C3.72601 3.63274 3.73726 3.59805 3.76445 3.59783L3.97426 3.59621L4.04064 3.39714C4.04936 3.37136 4.08579 3.37136 4.09439 3.39714Z" fill="#F5F5F5"/>
<path d="M4.09439 5.14663L4.16076 5.3457L4.37057 5.34732C4.39773 5.34754 4.40901 5.3822 4.38714 5.39835L4.21836 5.52301L4.28164 5.72307C4.28982 5.74898 4.26036 5.77038 4.23823 5.7546L4.06751 5.63257L3.89679 5.7546C3.8747 5.77042 3.8452 5.74898 3.85339 5.72307L3.91667 5.52301L3.74785 5.39835C3.72601 5.38223 3.73726 5.34754 3.76445 5.34732L3.97426 5.3457L4.04064 5.14663C4.04936 5.12088 4.08579 5.12088 4.09439 5.14663Z" fill="#F5F5F5"/>
<path d="M4.09439 6.71794L4.16076 6.91701L4.37057 6.91863C4.39773 6.91885 4.40901 6.95351 4.38714 6.96966L4.21836 7.09432L4.28164 7.29438C4.28982 7.32028 4.26036 7.34172 4.23823 7.32591L4.06751 7.20391L3.89679 7.32591C3.8747 7.34172 3.8452 7.32028 3.85339 7.29438L3.91667 7.09432L3.74785 6.96966C3.72601 6.95354 3.73726 6.91885 3.76445 6.91863L3.97426 6.91701L4.04064 6.71794C4.04936 6.69216 4.08579 6.69216 4.09439 6.71794Z" fill="#F5F5F5"/>
<path d="M4.90295 0.769313L4.96933 0.968375L5.17914 0.97C5.20629 0.970219 5.21758 1.00488 5.1957 1.021L5.02692 1.14566L5.0902 1.34572C5.09839 1.37163 5.06892 1.39303 5.04679 1.37725L4.87607 1.25522L4.70536 1.37725C4.68326 1.39306 4.65376 1.37163 4.66195 1.34572L4.72523 1.14566L4.55645 1.021C4.5346 1.00488 4.54585 0.970188 4.57304 0.97L4.78286 0.968375L4.84923 0.769313C4.85792 0.743563 4.89436 0.743563 4.90295 0.769313Z" fill="#F5F5F5"/>
<path d="M4.90292 2.42962L4.96929 2.62868L5.1791 2.63031C5.20626 2.63053 5.21754 2.66518 5.19566 2.68134L5.02688 2.80599L5.0902 3.00603C5.09838 3.03193 5.06892 3.05334 5.04679 3.03756L4.87607 2.91553L4.70535 3.03756C4.68326 3.05337 4.65376 3.03193 4.66195 3.00603L4.72523 2.80596L4.55645 2.68131C4.5346 2.66518 4.54585 2.63049 4.57304 2.63028L4.78285 2.62865L4.84923 2.42959C4.85788 2.40384 4.89432 2.40384 4.90292 2.42962Z" fill="#F5F5F5"/>
<path d="M4.90295 4.2719L4.96933 4.47096L5.17914 4.47259C5.20629 4.4728 5.21758 4.50746 5.1957 4.52362L5.02692 4.64827L5.0902 4.84833C5.09839 4.87424 5.06892 4.89565 5.04679 4.87986L4.87607 4.75787L4.70536 4.87986C4.68326 4.89565 4.65376 4.87424 4.66195 4.84833L4.72523 4.64827L4.55645 4.52362C4.5346 4.50749 4.54585 4.4728 4.57304 4.47259L4.78286 4.47096L4.84923 4.2719C4.85792 4.24612 4.89436 4.24612 4.90295 4.2719Z" fill="#F5F5F5"/>
<path d="M4.90295 5.96379L4.96933 6.16286L5.17914 6.16448C5.20629 6.1647 5.21758 6.19936 5.1957 6.21551L5.02692 6.34017L5.0902 6.54023C5.09839 6.56614 5.06892 6.58754 5.04679 6.57176L4.87607 6.44973L4.70536 6.57176C4.68326 6.58754 4.65376 6.56614 4.66195 6.54023L4.72523 6.34017L4.55645 6.21551C4.5346 6.19939 4.54585 6.1647 4.57304 6.16448L4.78286 6.16286L4.84923 5.96379C4.85792 5.93801 4.89436 5.93801 4.90295 5.96379Z" fill="#F5F5F5"/>
<path d="M4.90295 7.50371L4.96933 7.70277L5.17914 7.7044C5.20629 7.70462 5.21758 7.73927 5.1957 7.75543L5.02692 7.88008L5.0902 8.08015C5.09839 8.10605 5.06892 8.12746 5.04679 8.11168L4.87607 7.98968L4.70536 8.11168C4.68326 8.12746 4.65376 8.10605 4.66195 8.08015L4.72523 7.88008L4.55645 7.75543C4.5346 7.7393 4.54585 7.70462 4.57304 7.7044L4.78286 7.70277L4.84923 7.50371C4.85792 7.47793 4.89436 7.47793 4.90295 7.50371Z" fill="#F5F5F5"/>
<path d="M5.71157 1.55571L5.77795 1.75478L5.98776 1.7564C6.01492 1.75662 6.0262 1.79128 6.00432 1.8074L5.83551 1.93206L5.89879 2.13212C5.90698 2.15803 5.87748 2.17946 5.85539 2.16365L5.68467 2.04162L5.51395 2.16365C5.49186 2.17946 5.46236 2.15803 5.47054 2.13212L5.53382 1.93206L5.36504 1.8074C5.3432 1.79128 5.35445 1.75659 5.38161 1.7564L5.59142 1.75478L5.65779 1.55571C5.66654 1.52993 5.70298 1.52993 5.71157 1.55571Z" fill="#F5F5F5"/>
<path d="M5.71157 3.39714L5.77795 3.59621L5.98776 3.59783C6.01492 3.59805 6.0262 3.63271 6.00432 3.64886L5.83551 3.77352L5.89879 3.97358C5.90698 3.99949 5.87748 4.02093 5.85539 4.00511L5.68467 3.88308L5.51395 4.00511C5.49186 4.02093 5.46236 3.99949 5.47054 3.97358L5.53382 3.77352L5.36504 3.64886C5.3432 3.63274 5.35445 3.59805 5.38161 3.59783L5.59142 3.59621L5.65779 3.39714C5.66654 3.37136 5.70298 3.37136 5.71157 3.39714Z" fill="#F5F5F5"/>
<path d="M5.71157 5.14663L5.77795 5.3457L5.98776 5.34732C6.01492 5.34754 6.0262 5.3822 6.00432 5.39835L5.83551 5.52301L5.89879 5.72307C5.90698 5.74898 5.87748 5.77038 5.85539 5.7546L5.68467 5.63257L5.51395 5.7546C5.49186 5.77042 5.46236 5.74898 5.47054 5.72307L5.53382 5.52301L5.36504 5.39835C5.3432 5.38223 5.35445 5.34754 5.38161 5.34732L5.59142 5.3457L5.65779 5.14663C5.66654 5.12088 5.70298 5.12088 5.71157 5.14663Z" fill="#F5F5F5"/>
<path d="M5.71157 6.71794L5.77795 6.91701L5.98776 6.91863C6.01492 6.91885 6.0262 6.95351 6.00432 6.96966L5.83551 7.09432L5.89879 7.29438C5.90698 7.32028 5.87748 7.34172 5.85539 7.32591L5.68467 7.20391L5.51395 7.32591C5.49186 7.34172 5.46236 7.32028 5.47054 7.29438L5.53382 7.09432L5.36504 6.96966C5.3432 6.95354 5.35445 6.91885 5.38161 6.91863L5.59142 6.91701L5.65779 6.71794C5.66654 6.69216 5.70298 6.69216 5.71157 6.71794Z" fill="#F5F5F5"/>
<path d="M6.5202 0.769313L6.58657 0.968375L6.79639 0.97C6.82354 0.970219 6.83482 1.00488 6.81295 1.021L6.64414 1.14566L6.70742 1.34572C6.71561 1.37163 6.68611 1.39303 6.66401 1.37725L6.49329 1.25522L6.32257 1.37725C6.30048 1.39306 6.27098 1.37163 6.27917 1.34572L6.34245 1.14566L6.17364 1.021C6.15179 1.00488 6.16304 0.970188 6.19023 0.97L6.40004 0.968375L6.46642 0.769313C6.47517 0.743563 6.51161 0.743563 6.5202 0.769313Z" fill="#F5F5F5"/>
<path d="M6.5202 2.42961L6.58657 2.62868L6.79639 2.6303C6.82354 2.63052 6.83482 2.66518 6.81295 2.68133L6.64414 2.80599L6.70742 3.00605C6.71561 3.03196 6.68611 3.05337 6.66401 3.03758L6.49329 2.91555L6.32257 3.03758C6.30048 3.0534 6.27098 3.03196 6.27917 3.00605L6.34245 2.80599L6.17364 2.68133C6.15179 2.66521 6.16304 2.63052 6.19023 2.6303L6.40004 2.62868L6.46642 2.42961C6.47517 2.40383 6.51161 2.40383 6.5202 2.42961Z" fill="#F5F5F5"/>
<path d="M6.5202 4.2719L6.58657 4.47096L6.79639 4.47259C6.82354 4.4728 6.83482 4.50746 6.81295 4.52362L6.64414 4.64827L6.70742 4.84833C6.71561 4.87424 6.68611 4.89565 6.66401 4.87986L6.49329 4.75787L6.32257 4.87986C6.30048 4.89565 6.27098 4.87424 6.27917 4.84833L6.34245 4.64827L6.17364 4.52362C6.15179 4.50749 6.16304 4.4728 6.19023 4.47259L6.40004 4.47096L6.46642 4.2719C6.47517 4.24612 6.51161 4.24612 6.5202 4.2719Z" fill="#F5F5F5"/>
<path d="M6.5202 5.96379L6.58657 6.16286L6.79639 6.16448C6.82354 6.1647 6.83482 6.19936 6.81295 6.21551L6.64414 6.34017L6.70742 6.54023C6.71561 6.56614 6.68611 6.58754 6.66401 6.57176L6.49329 6.44973L6.32257 6.57176C6.30048 6.58754 6.27098 6.56614 6.27917 6.54023L6.34245 6.34017L6.17364 6.21551C6.15179 6.19939 6.16304 6.1647 6.19023 6.16448L6.40004 6.16286L6.46642 5.96379C6.47517 5.93801 6.51161 5.93801 6.5202 5.96379Z" fill="#F5F5F5"/>
<path d="M6.5202 7.50371L6.58657 7.70277L6.79639 7.7044C6.82354 7.70462 6.83482 7.73927 6.81295 7.75543L6.64414 7.88008L6.70742 8.08015C6.71561 8.10605 6.68611 8.12746 6.66401 8.11168L6.49329 7.98968L6.32257 8.11168C6.30048 8.12746 6.27098 8.10605 6.27917 8.08015L6.34245 7.88008L6.17364 7.75543C6.15179 7.7393 6.16304 7.70462 6.19023 7.7044L6.40004 7.70277L6.46642 7.50371C6.47517 7.47793 6.51161 7.47793 6.5202 7.50371Z" fill="#F5F5F5"/>
<path d="M7.32876 1.55571L7.39514 1.75478L7.60498 1.7564C7.63214 1.75662 7.64342 1.79128 7.62154 1.8074L7.45273 1.93206L7.51601 2.13212C7.5242 2.15803 7.4947 2.17946 7.4726 2.16365L7.30189 2.04162L7.13117 2.16365C7.10907 2.17946 7.07957 2.15803 7.08776 2.13212L7.15104 1.93206L6.98223 1.8074C6.96039 1.79128 6.97164 1.75659 6.99879 1.7564L7.20864 1.75478L7.27501 1.55571C7.28373 1.52993 7.32017 1.52993 7.32876 1.55571Z" fill="#F5F5F5"/>
<path d="M7.32876 3.39714L7.39514 3.59621L7.60498 3.59783C7.63214 3.59805 7.64342 3.63271 7.62154 3.64886L7.45273 3.77352L7.51601 3.97358C7.5242 3.99949 7.4947 4.02093 7.4726 4.00511L7.30189 3.88308L7.13117 4.00511C7.10907 4.02093 7.07957 3.99949 7.08776 3.97358L7.15104 3.77352L6.98223 3.64886C6.96039 3.63274 6.97164 3.59805 6.99879 3.59783L7.20864 3.59621L7.27501 3.39714C7.28373 3.37136 7.32017 3.37136 7.32876 3.39714Z" fill="#F5F5F5"/>
<path d="M7.32876 5.14663L7.39514 5.3457L7.60498 5.34732C7.63214 5.34754 7.64342 5.3822 7.62154 5.39835L7.45273 5.52301L7.51601 5.72307C7.5242 5.74898 7.4947 5.77038 7.4726 5.7546L7.30189 5.63257L7.13117 5.7546C7.10907 5.77042 7.07957 5.74898 7.08776 5.72307L7.15104 5.52301L6.98223 5.39835C6.96039 5.38223 6.97164 5.34754 6.99879 5.34732L7.20864 5.3457L7.27501 5.14663C7.28373 5.12088 7.32017 5.12088 7.32876 5.14663Z" fill="#F5F5F5"/>
<path d="M7.32876 6.71794L7.39514 6.91701L7.60498 6.91863C7.63214 6.91885 7.64342 6.95351 7.62154 6.96966L7.45273 7.09432L7.51601 7.29438C7.5242 7.32028 7.4947 7.34172 7.4726 7.32591L7.30189 7.20391L7.13117 7.32591C7.10907 7.34172 7.07957 7.32028 7.08776 7.29438L7.15104 7.09432L6.98223 6.96966C6.96039 6.95354 6.97164 6.91885 6.99879 6.91863L7.20864 6.91701L7.27501 6.71794C7.28373 6.69216 7.32017 6.69216 7.32876 6.71794Z" fill="#F5F5F5"/>
<path d="M8.1354 0.769313L8.20178 0.968375L8.41159 0.97C8.43875 0.970219 8.45003 1.00488 8.42818 1.021L8.25937 1.14566L8.32265 1.34572C8.33084 1.37163 8.30134 1.39303 8.27925 1.37725L8.10853 1.25522L7.93781 1.37725C7.91572 1.39306 7.88622 1.37163 7.8944 1.34572L7.95768 1.14566L7.78887 1.021C7.76703 1.00488 7.77828 0.970188 7.80543 0.97L8.01525 0.968375L8.08162 0.769313C8.09037 0.743563 8.12681 0.743563 8.1354 0.769313Z" fill="#F5F5F5"/>
<path d="M8.1354 2.42961L8.20178 2.62868L8.41159 2.6303C8.43875 2.63052 8.45003 2.66518 8.42818 2.68133L8.25937 2.80599L8.32265 3.00605C8.33084 3.03196 8.30134 3.05337 8.27925 3.03758L8.10853 2.91555L7.93781 3.03758C7.91572 3.0534 7.88622 3.03196 7.8944 3.00605L7.95768 2.80599L7.78887 2.68133C7.76703 2.66521 7.77828 2.63052 7.80543 2.6303L8.01525 2.62868L8.08162 2.42961C8.09037 2.40383 8.12681 2.40383 8.1354 2.42961Z" fill="#F5F5F5"/>
<path d="M8.1354 4.2719L8.20178 4.47096L8.41159 4.47259C8.43875 4.4728 8.45003 4.50746 8.42818 4.52362L8.25937 4.64827L8.32265 4.84833C8.33084 4.87424 8.30134 4.89565 8.27925 4.87986L8.10853 4.75787L7.93781 4.87986C7.91572 4.89565 7.88622 4.87424 7.8944 4.84833L7.95768 4.64827L7.78887 4.52362C7.76703 4.50749 7.77828 4.4728 7.80543 4.47259L8.01525 4.47096L8.08162 4.2719C8.09037 4.24612 8.12681 4.24612 8.1354 4.2719Z" fill="#F5F5F5"/>
<path d="M8.1354 5.96379L8.20178 6.16286L8.41159 6.16448C8.43875 6.1647 8.45003 6.19936 8.42818 6.21551L8.25937 6.34017L8.32265 6.54023C8.33084 6.56614 8.30134 6.58754 8.27925 6.57176L8.10853 6.44973L7.93781 6.57176C7.91572 6.58754 7.88622 6.56614 7.8944 6.54023L7.95768 6.34017L7.78887 6.21551C7.76703 6.19939 7.77828 6.1647 7.80543 6.16448L8.01525 6.16286L8.08162 5.96379C8.09037 5.93801 8.12681 5.93801 8.1354 5.96379Z" fill="#F5F5F5"/>
<path d="M8.1354 7.50371L8.20178 7.70277L8.41159 7.7044C8.43875 7.70462 8.45003 7.73927 8.42818 7.75543L8.25937 7.88008L8.32265 8.08015C8.33084 8.10605 8.30134 8.12746 8.27925 8.11168L8.10853 7.98968L7.93781 8.11168C7.91572 8.12746 7.88622 8.10605 7.8944 8.08015L7.95768 7.88008L7.78887 7.75543C7.76703 7.7393 7.77828 7.70462 7.80543 7.7044L8.01525 7.70277L8.08162 7.50371C8.09037 7.47793 8.12681 7.47793 8.1354 7.50371Z" fill="#F5F5F5"/>
</g>
<defs>
<clipPath id="clip0_1607_4741">
<rect width="16" height="16" fill="white" transform="translate(0.5)"/>
</clipPath>
</defs>
</svg>
