<svg width="48" height="48" viewBox="0 0 48 48" fill="none" xmlns="../../external.html?link=http://www.w3.org/2000/svg">
<circle cx="24" cy="24" r="24" fill="#003399"/>
<path d="M24.5054 5.14985H26.8225L24.9556 6.53928L25.6808 8.74449L23.8218 7.38669L21.9647 8.74449L22.6967 6.53928L20.8145 5.14985H23.123L23.8218 3L24.5054 5.14985Z" fill="#FFD500"/>
<path d="M24.605 40.7141H26.9221L25.0558 42.1059L25.7785 44.3093L23.9214 42.9515L22.0643 44.3093L22.7963 42.1059L20.9141 40.7141H23.2226L23.9214 38.5654L24.605 40.7141Z" fill="#FFD500"/>
<path d="M33.4728 38.3544H35.788L33.9236 39.7463L34.6469 41.9491L32.7898 40.5931L30.9303 41.9491L31.6635 39.7463L29.7812 38.3544H32.0885L32.7898 36.207L33.4728 38.3544Z" fill="#FFD500"/>
<path d="M33.4728 7.49092H35.788L33.9236 8.88096L34.6469 11.0862L32.7898 9.72776L30.9303 11.0862L31.6635 8.88096L29.7812 7.49092H32.0885L32.7898 5.34229L33.4728 7.49092Z" fill="#FFD500"/>
<path d="M40.0523 14.0258H42.3687L40.5024 15.4165L41.2264 17.6211L39.3687 16.2651L37.511 17.6211L38.2429 15.4165L36.3613 14.0258H38.6698L39.3687 11.8784L40.0523 14.0258Z" fill="#FFD500"/>
<path d="M40.0523 31.9106H42.3687L40.5024 33.3006L41.2264 35.5052L39.3687 34.1474L37.511 35.5052L38.2429 33.3006L36.3613 31.9106H38.6698L39.3687 29.7607L40.0523 31.9106Z" fill="#FFD500"/>
<path d="M42.5209 22.8323H44.8374L42.9711 24.223L43.695 26.4276L41.8367 25.0698L39.979 26.4276L40.7116 24.223L38.8281 22.8323H41.1372L41.8367 20.6831L42.5209 22.8323Z" fill="#FFD500"/>
<path d="M15.4657 7.51301H17.7822L15.9165 8.90305L16.6399 11.1077L14.7828 9.74985L12.9244 11.1077L13.6576 8.90305L11.7754 7.51301H14.0827L14.7828 5.36377L15.4657 7.51301Z" fill="#FFD500"/>
<path d="M9.06776 14.05H11.3849L9.51795 15.4388L10.2413 17.6452L8.38421 16.2868L6.52527 17.6452L7.25721 15.4388L5.375 14.05H7.68351L8.38421 11.9014L9.06776 14.05Z" fill="#FFD500"/>
<path d="M6.69092 22.8549H9.0074L7.14173 24.2444L7.86692 26.4496L6.00799 25.0918L4.14966 26.4496L4.8816 24.2444L3 22.8549H5.3079L6.00799 20.7051L6.69092 22.8549Z" fill="#FFD500"/>
<path d="M9.06776 31.9318H11.3849L9.51795 33.3237L10.2413 35.5271L8.38421 34.1687L6.52527 35.5271L7.25721 33.3237L5.375 31.9318H7.68351L8.38421 29.7832L9.06776 31.9318Z" fill="#FFD500"/>
<path d="M15.558 38.3782H17.8751L16.0088 39.7683L16.7315 41.9729L14.8744 40.6151L13.0167 41.9729L13.7474 39.7683L11.8652 38.3782H14.1737L14.8744 36.229L15.558 38.3782Z" fill="#FFD500"/>
</svg>
