<svg width="66" height="66" viewBox="0 0 66 66" fill="none" xmlns="../../external.html?link=http://www.w3.org/2000/svg">
<path fill-rule="evenodd" clip-rule="evenodd" d="M56.1343 0H9.86574C4.40761 0 0 4.40761 0 9.86574V56.1571C0 61.5924 4.40761 66 9.86574 66H35.2609V40.445H26.6512V30.4879H35.2609V23.1343C35.2609 14.6159 40.4678 9.95709 48.0727 9.95709C51.7266 9.95709 54.8554 10.2311 55.7689 10.3453V19.2519H50.4934C46.3599 19.2519 45.5606 21.2159 45.5606 24.0934V30.4422H55.4263L54.1474 40.3993H45.5606V66H56.1571C61.5924 66 66.0228 61.5924 66.0228 56.1343V9.86574C66 4.40761 61.5924 0 56.1343 0Z" fill="#FFF5D3"/>
</svg>
