<svg width="242" height="264" viewBox="0 0 242 264" fill="none" xmlns="../../external.html?link=http://www.w3.org/2000/svg">
<path d="M210.904 201.629C215.544 204.296 215.544 208.702 210.904 211.253L125.292 261.112C120.768 263.779 113.344 263.779 108.703 261.112L30.9801 216.239C26.34 213.572 26.34 209.166 30.9801 206.615L116.592 156.756C121.116 154.089 128.54 154.089 133.181 156.756L210.904 201.629Z" fill="#FFCE00"/>
<path d="M119.353 60.8454L112.688 56.9331C113.341 56.4115 113.995 56.0202 114.648 55.629C119.353 52.8904 123.534 52.6296 126.67 54.4553L133.335 58.3676C130.329 56.5419 126.017 56.8027 121.313 59.5413C120.659 59.9325 120.006 60.4542 119.353 60.8454Z" fill="url(#paint0_linear)"/>
<path d="M47.2184 135.309L40.5539 131.397C37.4176 129.571 35.5881 125.92 35.5881 120.573C35.5881 109.879 43.0368 96.9689 52.3149 91.6221C52.9682 91.2308 53.6216 90.97 54.275 90.5788L60.9396 94.4911C60.2862 94.7519 59.6328 95.1431 58.9794 95.5344C49.7013 100.881 42.2527 113.792 42.2527 124.485C42.2527 129.702 44.2128 133.483 47.2184 135.309Z" fill="url(#paint1_linear)"/>
<path d="M104.325 42.5881C98.9668 39.4583 91.5182 39.9799 83.4162 44.6747C68.5189 53.2817 56.3659 72.9735 54.4058 90.5787L61.0703 94.491C63.0305 76.8858 75.1835 57.0635 90.0807 48.5869C98.3134 43.8922 105.631 43.3706 110.989 46.5004L104.325 42.5881Z" fill="url(#paint2_linear)"/>
<path d="M90.0807 48.5869C104.978 39.9798 117.262 45.5874 119.352 60.8453C120.006 60.3237 120.659 59.9325 121.313 59.5412C130.591 54.1945 138.17 58.498 138.17 69.1915C138.17 79.8851 130.721 92.7956 121.443 98.1424C116.216 101.142 64.4679 131.006 59.1101 134.005C49.832 139.352 42.2527 135.048 42.2527 124.355C42.2527 113.661 49.7013 100.751 58.9794 95.4038C59.6328 95.0126 60.2862 94.7518 60.9396 94.3605C63.0304 76.8857 75.1834 57.0635 90.0807 48.5869Z" fill="#343434"/>
<path d="M102.626 98.012C104.455 96.9688 106.023 97.7512 106.023 99.9682C106.023 102.055 104.455 104.663 102.626 105.837C100.796 106.88 99.228 106.097 99.228 103.88C99.3587 101.794 100.796 99.1857 102.626 98.012Z" fill="url(#paint3_linear)"/>
<path d="M82.1093 110.01C83.9388 108.966 85.5069 109.749 85.5069 111.966C85.5069 114.052 83.9388 116.661 82.1093 117.834C80.2798 118.878 78.7117 118.095 78.7117 115.878C78.8423 113.661 80.2798 111.053 82.1093 110.01Z" fill="url(#paint4_linear)"/>
<path d="M100.273 188.516C99.8814 188.516 99.4893 188.386 99.0973 188.255L52.7068 161.521C50.4852 160.217 49.1785 158 49.1785 155.392C49.1785 152.784 50.4852 150.567 52.7068 149.263L91.91 126.702C92.9554 126.05 93.0861 125.007 93.0861 124.616C93.0861 124.224 92.9554 123.181 91.91 122.529L82.6319 117.052C81.4558 116.4 81.0638 114.965 81.7172 113.792C82.3706 112.618 83.808 112.227 84.9841 112.879L94.2622 118.226C96.4837 119.53 97.7905 121.747 97.7905 124.355C97.7905 126.963 96.4837 129.18 94.2622 130.484L55.059 153.045C54.0135 153.697 53.8829 154.74 53.8829 155.131C53.8829 155.523 54.0135 156.566 55.059 157.218L101.449 184.082C102.626 184.734 103.018 186.169 102.364 187.342C101.842 187.995 101.057 188.516 100.273 188.516Z" fill="url(#paint5_linear)"/>
<path d="M182.339 199.731L118.699 236.637C117.784 237.159 116.216 237.159 115.301 236.637L71.5245 211.468C71.0018 211.207 70.8711 210.816 70.8711 210.555V218.249C70.8711 218.641 71.1324 218.902 71.5245 219.162L115.301 244.331C116.216 244.853 117.784 244.853 118.699 244.331L182.339 207.425C182.731 207.165 182.992 206.773 182.992 206.513V198.818C182.992 199.079 182.731 199.471 182.339 199.731Z" fill="#131313"/>
<path d="M182.339 197.775C183.254 198.297 183.254 199.21 182.339 199.731L118.699 236.637C117.784 237.159 116.216 237.159 115.301 236.637L71.5244 211.468C70.6097 210.947 70.6097 210.034 71.5244 209.512L135.164 172.606C136.079 172.085 137.647 172.085 138.562 172.606L182.339 197.775Z" fill="#303030"/>
<path d="M136.21 118.486L129.545 114.574C130.068 114.313 130.46 114.313 130.722 114.444L137.386 118.356C137.125 118.095 136.733 118.226 136.21 118.486Z" fill="url(#paint6_linear)"/>
<path d="M75.3141 169.085L59.1101 159.696V165.173L75.3141 174.562V169.085Z" fill="#FDC500"/>
<path d="M130.721 114.444C130.46 114.313 129.937 114.313 129.545 114.574L65.5133 151.48C64.5985 152.002 63.8145 153.306 63.8145 154.349L63.9451 204.557C63.9451 205.078 64.0758 205.469 64.4678 205.6L71.1324 209.512C70.871 209.382 70.6097 208.99 70.6097 208.469L70.479 158.261C70.479 157.218 71.2631 155.914 72.1778 155.392L136.21 118.486C136.733 118.226 137.125 118.226 137.386 118.356L130.721 114.444Z" fill="url(#paint7_linear)"/>
<path d="M136.21 118.486C137.125 117.965 137.909 118.356 137.909 119.399L138.039 169.607C138.039 170.65 137.255 171.954 136.34 172.476L72.3085 209.382C71.3937 209.903 70.6097 209.512 70.6097 208.469L70.479 158.261C70.479 157.218 71.2631 155.914 72.1778 155.392L136.21 118.486Z" fill="#131313"/>
<path d="M132.943 124.224C133.858 123.703 134.642 124.094 134.642 125.137L134.772 167.651C134.772 168.694 133.988 169.998 133.074 170.52L75.7062 203.644C74.7915 204.165 74.0074 203.774 74.0074 202.731L73.8767 160.217C73.8767 159.174 74.6608 157.87 75.5755 157.348L132.943 124.224Z" fill="#FFCE00"/>
<path d="M101.058 147.959C101.188 147.828 101.319 147.828 101.45 147.828L107.853 149.133C108.245 149.133 108.245 149.915 107.853 150.437L101.45 159.174C101.319 159.304 101.188 159.435 101.058 159.435C100.666 159.696 100.404 159.565 100.404 159.044V156.175C96.6145 159.304 93.7396 164.912 93.7396 169.476C93.7396 172.737 95.1771 174.954 97.5293 175.345C98.3133 175.475 98.5747 176.519 98.052 177.692C97.7906 178.475 97.2679 178.996 96.6145 179.388C96.2225 179.518 95.9611 179.648 95.6998 179.648C92.4328 178.996 90.4727 175.997 90.4727 171.433C90.4727 164.651 94.785 156.566 100.535 152.262V149.002C100.404 148.611 100.666 148.089 101.058 147.959Z" fill="white"/>
<path d="M112.034 148.35C112.427 148.22 112.688 148.089 112.949 148.089C116.216 148.741 118.307 151.741 118.307 156.305C118.307 163.086 113.995 171.172 108.245 175.475V178.735C108.245 179.127 107.983 179.648 107.591 179.909C107.461 180.04 107.33 180.04 107.199 180.04L100.796 178.735C100.404 178.735 100.404 177.953 100.796 177.431L107.199 168.694C107.33 168.563 107.461 168.433 107.591 168.433C107.983 168.172 108.245 168.433 108.245 168.824V171.693C112.034 168.563 114.909 162.956 114.909 158.392C114.909 155.131 113.472 152.914 111.12 152.523C110.336 152.393 110.074 151.349 110.597 150.176C110.989 149.263 111.512 148.611 112.034 148.35Z" fill="white"/>
<path opacity="0.44" d="M238.404 47.9937L133.065 2.88853C128.424 0.221645 120.884 0.221645 116.476 2.88853L3.48015 52.7477C1.27605 54.1392 0 55.7625 0 57.5017L27.5 211.138C27.5 212.993 28.66 214.616 30.9801 215.892L108.819 260.765C113.46 263.432 121 263.432 125.408 260.765L211.02 210.906C213.224 209.514 214.5 207.891 214.5 206.152L242 52.6318C241.768 51.0085 240.608 49.2692 238.404 47.9937Z" fill="url(#paint8_linear)"/>
<defs>
<linearGradient id="paint0_linear" x1="112.672" y1="57.1125" x2="133.346" y2="57.1125" gradientUnits="userSpaceOnUse">
<stop stop-color="#1B1B1B"/>
<stop offset="0.1604" stop-color="#1B1B1B"/>
<stop offset="0.7292" stop-color="#303030"/>
<stop offset="1" stop-color="#303030"/>
</linearGradient>
<linearGradient id="paint1_linear" x1="66.2006" y1="78.8971" x2="31.2461" y2="142.858" gradientUnits="userSpaceOnUse">
<stop stop-color="#1B1B1B"/>
<stop offset="0.4794" stop-color="#1B1B1B"/>
<stop offset="0.5973" stop-color="#303030"/>
<stop offset="1" stop-color="#303030"/>
</linearGradient>
<linearGradient id="paint2_linear" x1="111.059" y1="67.5376" x2="54.3713" y2="67.5376" gradientUnits="userSpaceOnUse">
<stop stop-color="#1B1B1B"/>
<stop offset="0.255" stop-color="#1B1B1B"/>
<stop offset="0.7007" stop-color="#303030"/>
<stop offset="1" stop-color="#303030"/>
</linearGradient>
<linearGradient id="paint3_linear" x1="104.368" y1="98.5144" x2="100.406" y2="106.617" gradientUnits="userSpaceOnUse">
<stop stop-color="#1B1B1B"/>
<stop offset="0.255" stop-color="#1B1B1B"/>
<stop offset="0.7007" stop-color="#303030"/>
<stop offset="1" stop-color="#303030"/>
</linearGradient>
<linearGradient id="paint4_linear" x1="87.8068" y1="106.312" x2="76.5655" y2="121.331" gradientUnits="userSpaceOnUse">
<stop stop-color="#1B1B1B"/>
<stop offset="0.255" stop-color="#1B1B1B"/>
<stop offset="0.7007" stop-color="#303030"/>
<stop offset="1" stop-color="#303030"/>
</linearGradient>
<linearGradient id="paint5_linear" x1="102.611" y1="150.551" x2="49.1355" y2="150.551" gradientUnits="userSpaceOnUse">
<stop stop-color="#FFD500"/>
<stop offset="1" stop-color="#FDC500"/>
</linearGradient>
<linearGradient id="paint6_linear" x1="129.541" y1="116.385" x2="137.424" y2="116.385" gradientUnits="userSpaceOnUse">
<stop offset="0.00352733" stop-color="#E6F1FC"/>
<stop offset="1" stop-color="#BFCDE0"/>
</linearGradient>
<linearGradient id="paint7_linear" x1="90.5021" y1="153.417" x2="79.0223" y2="173.287" gradientUnits="userSpaceOnUse">
<stop stop-color="#1B1B1B"/>
<stop offset="0.4794" stop-color="#1B1B1B"/>
<stop offset="0.5973" stop-color="#303030"/>
<stop offset="1" stop-color="#303030"/>
</linearGradient>
<linearGradient id="paint8_linear" x1="120.996" y1="203.642" x2="120.996" y2="97.5407" gradientUnits="userSpaceOnUse">
<stop stop-color="#FFBB13" stop-opacity="0.63"/>
<stop offset="0.4323" stop-color="#FFB905" stop-opacity="0.22"/>
<stop offset="0.9635" stop-color="#FFE101" stop-opacity="0"/>
</linearGradient>
</defs>
</svg>
