<svg width="139" height="54" viewBox="0 0 139 54" fill="none" xmlns="../../external.html?link=http://www.w3.org/2000/svg">
<path d="M11.746 14.0001C12.6559 14.7874 13.8086 14.8884 14.941 15.0499C17.5293 15.4335 20.0974 15.3931 22.6656 14.7874C23.1913 14.6663 23.7777 14.5452 24.1619 14.2222C24.9708 13.5156 25.4157 13.9597 25.9212 14.5452C27.64 16.5236 28.8736 18.7645 29.7633 21.2274C28.7927 21.3687 28.0243 20.6621 27.0941 20.6419C26.7503 19.5114 26.4065 18.4011 25.5977 17.4926C24.0608 15.7363 21.796 15.7363 20.2592 17.4926C19.6121 18.2396 19.1875 19.1077 18.965 20.0767C18.8639 20.5208 18.8235 20.8842 18.1157 20.8842C17.408 20.8842 17.2664 20.6218 17.1653 20.0767C17.0238 19.3499 16.7002 18.6837 16.2958 18.0579C14.6174 15.5344 11.7864 15.5344 10.1282 18.0579C9.27894 19.3297 8.97562 20.7631 8.99584 22.257C7.74211 22.156 6.77148 23.0645 5.59863 23.2462C6.67037 20.0363 8.04543 16.9879 10.3305 14.4241C10.6136 14.1011 10.8764 13.7377 11.3011 13.5762C11.4022 13.7982 11.5235 13.9799 11.8066 13.9799L11.746 14.0001Z" fill="#51555E"/>
<path d="M27.0537 20.6421C27.9838 20.6623 28.7725 21.3689 29.7229 21.2275C30.8957 24.5989 32.5943 27.6877 34.2727 30.8168C35.3445 32.8356 35.9107 35.0563 35.8904 37.3981C35.4253 37.4586 35.1625 37.1356 34.8794 36.853C34.0705 36.0455 33.3223 35.1976 32.4528 34.4708C31.6641 33.8248 31.0373 32.7952 29.7836 32.9769C28.7523 30.7966 27.721 28.6365 26.2448 26.7187C26.083 26.4966 25.9415 26.3149 26.1235 26.0121C27.1548 24.3365 27.2154 22.5196 27.0537 20.6421Z" fill="#51555E"/>
<path d="M7.8036 50.0764C3.55709 47.5327 1.13051 43.7777 0.260987 38.973C0.038551 37.7012 0.0992154 36.4293 0.382316 35.1777C1.43383 34.9152 2.04048 34.027 2.84934 33.3809C4.20418 32.2908 5.45791 31.0593 7.25762 30.7363C6.54987 32.3514 5.86234 33.9866 5.39724 35.7026C5.15459 36.5706 4.77038 37.4387 4.93215 38.3876C4.72993 38.9932 4.75016 39.5988 4.77038 40.2247C4.54794 41.0927 4.70971 41.981 4.81082 42.8491C4.85126 43.9796 5.05348 45.0899 5.49835 46.1195C5.70057 46.7655 5.96345 47.3712 6.3881 47.8961C6.4892 48.2594 6.79253 48.5017 6.97452 48.8045C7.25762 49.2487 7.90471 49.4303 7.8036 50.0764Z" fill="#51555E"/>
<path d="M7.80418 50.0765C7.88506 49.4103 7.23797 49.2286 6.97509 48.8046C6.7931 48.5018 6.48978 48.2595 6.38867 47.8962C6.87399 47.8154 7.31886 47.9971 7.76373 48.1586C10.2712 49.1074 12.8393 49.6929 15.549 49.9553C19.0271 50.2783 22.4041 49.8948 25.7608 49.0469C27.0955 48.7037 28.2683 47.9164 29.6838 47.876C29.3805 48.8652 28.329 49.2084 27.8841 50.0765C25.2149 51.7722 22.3434 52.8826 19.1889 53.1046C15.9534 53.3267 12.9202 52.6201 10.0488 51.1262C9.32079 50.7628 8.51193 50.5206 7.80418 50.0765Z" fill="#A7A9AC"/>
<path d="M7.27862 30.7561C5.47891 31.0791 4.22518 32.3105 2.87034 33.4007C2.0817 34.0265 1.47506 34.9148 0.40332 35.1974C0.6662 33.1382 1.47506 31.2608 2.48613 29.464C3.61854 27.4453 4.8116 25.4668 5.5598 23.2664C6.73264 23.0847 7.70327 22.1964 8.957 22.2771C8.99745 23.549 9.07833 24.841 9.88719 25.911C10.1096 26.2138 10.049 26.4359 9.84675 26.6983C8.83568 27.9701 8.1077 29.3833 7.27862 30.7561Z" fill="#51555E"/>
<path d="M27.8838 50.0966C28.3287 49.2487 29.3802 48.8853 29.6835 47.8961C30.0475 47.4116 30.371 46.8867 30.4721 46.2811C30.8563 45.1707 31.3012 44.0604 31.2608 42.8491C31.4023 41.981 31.4225 41.0928 31.2608 40.2247C31.2406 39.6191 31.463 38.9932 31.0788 38.4078C31.0181 36.5101 30.371 34.7538 29.8048 32.9772C31.0586 32.7955 31.6854 33.8251 32.4741 34.4711C33.3436 35.1777 34.0918 36.0458 34.9006 36.8533C35.1837 37.1359 35.4466 37.4589 35.9117 37.3984C35.6084 42.9299 33.02 47.0886 28.3691 50.0158C28.2276 50.0966 28.0456 50.0562 27.8838 50.0966Z" fill="#51555E"/>
<path d="M22.1601 2.39209C22.4836 3.21979 22.7869 3.94656 23.07 4.69351C23.1914 5.03671 22.0185 6.53061 21.6545 6.51043C21.5939 6.51043 21.5332 6.47005 21.4726 6.42967C21.0681 6.14704 20.7041 4.45126 20.967 4.02731C21.331 3.52261 21.7152 3.01792 22.1601 2.39209Z" fill="#E64B2D"/>
<path d="M13.8088 2.37207C14.2536 3.05846 14.6176 3.58335 14.9412 4.10823C15.1838 4.51199 14.8198 6.1674 14.4559 6.42984C14.4154 6.47022 14.3548 6.49041 14.2941 6.49041C13.8492 6.5106 12.7775 4.9965 12.919 4.55237C12.9797 4.37068 13.0606 4.1688 13.1415 3.9871C13.3437 3.52278 13.5459 3.01808 13.8088 2.37207Z" fill="#E64B2D"/>
<path d="M29.8043 32.977C30.3705 34.7536 31.0378 36.6262 31.0782 38.5239C30.5929 38.6046 30.2491 38.9478 29.8649 39.2103C26.7913 41.2493 23.3738 42.324 19.7137 42.6067C15.4268 42.9297 11.3825 42.0212 7.60108 39.9217C6.69111 39.417 5.94291 38.67 4.91162 38.3672C4.74985 37.4184 5.13406 36.5503 5.37671 35.6822C5.84181 33.9662 6.54956 32.3512 7.23709 30.716C8.06617 29.3634 8.79414 27.93 9.80522 26.6784C10.0277 26.4159 10.0681 26.1737 9.84566 25.8911C9.0368 24.8009 8.97614 23.5291 8.91547 22.2572C8.91547 20.7431 9.21879 19.33 10.0479 18.0581C11.706 15.5347 14.537 15.5347 16.2154 18.0581C16.6199 18.684 16.9434 19.3502 17.0849 20.0769C17.1861 20.622 17.3276 20.8845 18.0354 20.8845C18.7431 20.8845 18.7836 20.5211 18.8847 20.0769C19.1071 19.1079 19.5317 18.2398 20.1788 17.4929C21.6954 15.7365 23.9805 15.7365 25.5173 17.4929C26.3059 18.4013 26.6699 19.5117 27.0137 20.6422C27.1755 22.4995 27.1148 24.3366 26.1037 25.992C25.9217 26.2948 26.0633 26.4967 26.2251 26.6986C27.7417 28.6366 28.773 30.7967 29.8043 32.977ZM15.5279 23.8723C15.3863 24.2155 15.265 24.6192 15.5481 24.922C15.8717 25.2652 16.2356 24.922 16.539 24.8009C17.4894 24.3972 18.3993 24.4173 19.3498 24.7807C19.6935 24.922 20.0979 25.3056 20.4417 24.8817C20.7248 24.5183 20.6237 24.0741 20.381 23.6704C20.2395 22.9638 19.8957 22.3582 19.4104 21.8333C18.7027 21.0863 17.8129 20.8845 17.0647 21.4093C16.2154 22.015 15.6492 22.8225 15.5279 23.8723ZM12.6564 20.4403C11.8678 20.4403 11.3016 21.046 11.2814 21.8737C11.2814 22.0957 11.2207 22.3784 11.4634 22.5197C11.7465 22.6812 11.888 22.4187 12.0296 22.2774C12.4138 21.8939 12.8991 21.6718 13.4046 21.5305C13.6271 21.4699 13.9304 21.4901 13.9304 21.1873C13.9304 20.9248 13.6877 20.8037 13.4855 20.7028C13.2226 20.5211 12.9395 20.3999 12.6564 20.4403ZM23.3334 20.4403C22.9087 20.4201 22.5447 20.5614 22.2414 20.8441C21.9583 21.0863 21.837 21.3488 22.3223 21.4699C23.0301 21.6314 23.6165 21.9544 24.122 22.4591C24.3242 22.661 24.5265 22.6408 24.6276 22.2976C24.9107 21.4699 24.2029 20.4605 23.3334 20.4403ZM18.9858 25.3258C18.8644 24.7807 18.4196 24.8615 18.0556 24.8817C17.6511 24.9019 17.0647 24.6798 16.9838 25.2854C16.9232 25.8305 17.4287 26.0526 17.9343 26.0929C18.4398 26.1131 18.8038 25.8709 18.9858 25.3258Z" fill="#FDFDFD"/>
<path d="M11.7458 14H11.766C11.8469 13.5559 11.6244 13.4752 11.2604 13.5963C11.1998 12.1226 10.7751 10.6892 10.5931 9.21551C10.5527 8.91269 10.5325 8.63006 10.492 8.32724C11.6649 8.12536 12.7568 7.74179 13.869 7.33803C14.1117 7.51972 14.3543 7.68123 14.6172 7.8831C14.8801 7.33803 15.1227 6.83333 15.3654 6.32863C16.0125 6.36901 16.336 5.8845 16.6393 5.48074C17.4887 4.39059 18.2166 3.23988 18.8233 2.00842C19.531 3.68401 20.259 5.35961 20.987 7.03521C21.1285 7.33803 21.1083 7.78216 21.5936 7.86292C21.4521 8.00423 21.2903 8.14555 21.1892 8.30705C19.6119 10.77 17.5291 12.6273 14.8599 13.8587C14.5768 13.9799 14.3139 14.1414 14.3139 14.5047C13.3837 14.5855 12.6759 13.778 11.7458 14Z" fill="#FAA81B"/>
<path d="M23.5753 5.90462C24.4246 5.05673 25.2739 4.20884 26.2445 3.26001C26.3052 4.51166 25.9817 5.58162 25.8199 6.67177C25.5368 8.56943 25.1526 10.4267 24.9301 12.3244C24.8088 13.3136 24.2628 13.7981 23.4135 14.0807C21.3105 14.8277 19.1468 14.8883 16.9427 14.7671C16.9427 14.4037 17.2258 14.2826 17.4886 14.1009C20.1983 12.2234 22.18 9.74033 23.5753 6.77271C23.7168 6.51026 23.9999 6.20744 23.5753 5.90462Z" fill="#FAA81B"/>
<path d="M23.5753 5.90462C24.1011 6.12671 23.818 6.55055 23.6966 6.83318C22.2811 9.78062 20.3399 12.2234 17.6302 14.1008C17.3875 14.2825 16.9426 14.4238 16.9426 14.7872C16.0327 14.868 15.1632 14.7065 14.2936 14.5046C14.2936 14.1412 14.5565 13.9797 14.8396 13.8586C17.5088 12.6473 19.5917 10.7698 21.1689 8.30688C21.27 8.14537 21.4318 8.00406 21.5734 7.86274C22.2407 7.19654 22.908 6.55064 23.5753 5.90462Z" fill="#FAA81B"/>
<path d="M13.869 7.33803C12.777 7.76198 11.6649 8.14555 10.492 8.32724C10.1887 6.69202 9.88535 5.07698 9.58203 3.44176C9.68314 3.3812 9.78425 3.30045 9.90557 3.23988C11.22 4.61266 12.5344 5.96525 13.869 7.33803Z" fill="#FAA81B"/>
<path d="M18.8435 2.08911C18.2368 3.32057 17.5695 4.43091 16.7202 5.52105C16.3967 5.92481 15.9922 6.36895 15.3452 6.32857C16.1742 4.24922 17.0235 2.14967 17.8526 0.0703125C17.9335 0.0703125 18.0144 0.0905004 18.0953 0.0905004C18.3177 0.716326 18.6008 1.44309 18.8435 2.08911Z" fill="#FAA81B"/>
<path d="M11.2604 13.5963C11.6244 13.4953 11.8469 13.5559 11.766 14C11.5031 14 11.3615 13.8184 11.2604 13.5963Z" fill="#FAA81B"/>
<path d="M31.2605 42.6299C31.301 43.8411 30.8561 45.1704 30.4719 46.2807C29.9866 46.2201 29.5417 46.4018 29.1171 46.5835C26.4883 47.6939 23.7988 48.4812 20.9274 48.7638C17.247 49.107 13.6881 48.8042 10.1291 47.7746C8.55181 47.3305 7.15653 46.4018 5.51859 46.1394C5.07371 45.0896 4.8715 43.7806 4.83105 42.6501C5.78146 42.6702 6.38811 43.397 7.17675 43.7402C11.0593 45.436 15.0429 46.3646 19.3299 46.1224C22.3833 45.9407 25.2548 45.2139 28.0858 44.1036C29.1777 43.6393 30.0472 42.751 31.2605 42.6299Z" fill="#D2D3D5"/>
<path d="M31.2603 42.8494C30.047 42.9907 29.1775 43.8588 28.0855 44.2827C25.2545 45.3931 22.4033 46.14 19.3296 46.3015C15.0427 46.5438 11.059 45.6151 7.17649 43.9193C6.38786 43.5761 5.78121 42.8494 4.8308 42.8292C4.72969 41.9611 4.56792 41.093 4.79036 40.2048C5.1139 40.1846 5.35656 40.3057 5.61944 40.4672C9.82551 43.0714 14.3551 44.3635 19.37 44.0607C23.0706 43.8386 26.4678 42.7888 29.6628 40.9517C30.1683 40.6489 30.6132 40.1846 31.2603 40.1846C31.4221 41.093 31.4018 41.9611 31.2603 42.8494Z" fill="#E6E7E8"/>
<path d="M31.2604 40.2241C30.5931 40.2241 30.1685 40.6885 29.6629 40.9913C26.4679 42.8284 23.091 43.8782 19.3702 44.1002C14.3553 44.403 9.84588 43.111 5.6196 40.5068C5.35672 40.3453 5.09384 40.204 4.79051 40.2443C4.77029 39.6185 4.75007 39.0129 4.95229 38.4072C5.98358 38.71 6.73178 38.9306 7.64174 39.4353C11.4232 41.5348 15.4675 42.4433 19.7544 42.1203C23.4145 41.8376 26.8117 41.173 29.9056 39.134C30.2898 38.8716 30.6133 38.5284 31.1189 38.4476C31.4626 38.9725 31.2402 39.6185 31.2604 40.2241Z" fill="#F3F3F4"/>
<path d="M5.51953 46.1196C7.15747 46.3821 8.55275 47.3107 10.13 47.7548C13.6688 48.7844 17.248 49.0873 20.9283 48.7441C23.7998 48.4816 26.4892 47.6741 29.118 46.5638C29.5427 46.3821 29.9875 46.2004 30.4728 46.2609C30.3717 46.8868 30.0482 47.3915 29.6842 47.876C28.2687 47.9164 27.0959 48.7037 25.7612 49.0469C22.4045 49.8948 19.0275 50.2783 15.5494 49.9553C12.8599 49.6929 10.2918 49.1276 7.76412 48.1586C7.31924 47.9971 6.89459 47.8154 6.38905 47.8962C5.9644 47.3713 5.70152 46.7656 5.51953 46.1196Z" fill="#BEC0C2"/>
<path d="M20.3821 23.6701C20.6248 24.0537 20.7259 24.518 20.4428 24.8814C20.1192 25.3054 19.6946 24.9016 19.3508 24.7805C18.4004 24.4171 17.4904 24.3969 16.54 24.8007C16.2367 24.9218 15.8727 25.2852 15.5492 24.9218C15.2863 24.6391 15.4076 24.2354 15.5289 23.872C16.3378 23.6096 16.8838 22.8828 17.8544 22.8222C18.8655 22.7819 19.553 23.3875 20.3821 23.6701Z" fill="#F48422"/>
<path d="M20.3827 23.6704C19.5537 23.3675 18.8661 22.7821 17.8753 22.8225C16.9046 22.8628 16.3587 23.6098 15.5498 23.8722C15.6711 22.8225 16.2171 21.9948 17.0866 21.4093C17.8348 20.8844 18.7246 21.0661 19.4323 21.8333C19.8974 22.3581 20.2412 22.9638 20.3827 23.6704Z" fill="#E64B2D"/>
<path d="M12.6562 20.4406C12.9393 20.4204 13.2224 20.5213 13.4853 20.6626C13.6875 20.7636 13.9302 20.9049 13.9302 21.1471C13.9302 21.4701 13.6268 21.4298 13.4044 21.4903C12.8786 21.6316 12.4136 21.8537 12.0293 22.2373C11.8878 22.3786 11.7462 22.6612 11.4631 22.4795C11.2205 22.3382 11.2812 22.0758 11.2812 21.8335C11.3014 21.0462 11.8676 20.4406 12.6562 20.4406Z" fill="#151718"/>
<path d="M23.334 20.4399C24.2035 20.4601 24.8911 21.4695 24.6282 22.2972C24.5271 22.6202 24.3249 22.6606 24.1227 22.4587C23.6171 21.9338 23.0307 21.631 22.3229 21.4695C21.8376 21.3483 21.959 21.0859 22.2421 20.8436C22.5454 20.561 22.9296 20.4197 23.334 20.4399Z" fill="#151718"/>
<path d="M18.9867 25.3258C18.8249 25.8709 18.4407 26.1131 17.9352 26.0728C17.4297 26.0324 16.9443 25.8103 16.9848 25.2653C17.0454 24.6596 17.6521 24.8817 18.0565 24.8615C18.4205 24.8615 18.8654 24.7807 18.9867 25.3258Z" fill="#F48422"/>
<path d="M56.6119 26.7764V22.7971L57.6131 21.7063L61.7578 26.7764H66.0228L60.0559 19.545L65.7825 13.2024H61.5776L56.6119 18.939V13.2024H53.0879V26.7764H56.6119Z" fill="white"/>
<path d="M70.733 26.7764V13.2024H67.0688V26.7764H70.733Z" fill="white"/>
<path d="M76.8859 26.7764V18.232L82.9929 26.7764H86.5169V13.2024H83.1531V21.7467L77.026 13.2024H73.502V26.7764H76.8859Z" fill="white"/>
<path d="M88.4609 19.9894C88.4008 24.0697 91.6245 27.0794 95.9695 27.0188C97.6715 27.0188 99.4736 26.6148 101.376 25.827V18.838H95.3288V21.5245H98.0119V23.8879C97.4512 24.0899 96.8706 24.1908 96.2499 24.1908C95.0084 24.1908 93.9873 23.8071 93.2064 23.0395C92.4255 22.2517 92.045 21.2417 92.045 19.9894C92.045 18.7572 92.4255 17.7472 93.2064 16.9594C93.9873 16.1717 95.0084 15.7879 96.2499 15.7879C97.231 15.7879 98.3923 16.1515 99.7539 16.8585L101.075 14.3941C99.2934 13.4447 97.5313 12.96 95.8094 12.96C91.5044 12.96 88.4609 15.8687 88.4609 19.9894Z" fill="white"/>
<path d="M103.611 21.3225C103.551 24.6756 106.454 27.0794 110.279 27.0188C114.103 27.0794 117.006 24.6756 116.946 21.3225V13.2024H113.282V21.1811C113.282 22.9385 112.061 24.1303 110.279 24.1303C108.517 24.1303 107.275 22.9385 107.275 21.1811V13.2024H103.611V21.3225Z" fill="white"/>
<path d="M123.215 26.7764V13.2024H119.551V26.7764H123.215Z" fill="white"/>
<path d="M129.368 26.7764V18.232L135.475 26.7764H138.999V13.2024H135.635V21.7467L129.508 13.2024H125.984V26.7764H129.368Z" fill="white"/>
<path d="M51.4411 39.7357C51.393 42.9999 53.972 45.4077 57.448 45.3592C58.8096 45.3592 60.2512 45.036 61.773 44.4058V38.8146H56.9354V40.9638H59.0819V42.8545C58.6334 43.0161 58.1688 43.0969 57.6723 43.0969C56.6791 43.0969 55.8622 42.7899 55.2375 42.1758C54.6127 41.5456 54.3084 40.7376 54.3084 39.7357C54.3084 38.75 54.6127 37.942 55.2375 37.3118C55.8622 36.6816 56.6791 36.3745 57.6723 36.3745C58.4572 36.3745 59.3862 36.6654 60.4755 37.231L61.5327 35.2595C60.1071 34.5 58.6974 34.1122 57.3199 34.1122C53.8759 34.1122 51.4411 36.4392 51.4411 39.7357Z" fill="white"/>
<path d="M66.6207 45.1653V34.3061H63.6893V45.1653H66.6207Z" fill="white"/>
<path d="M71.7672 45.1653V41.1739H76.1242V38.9277H71.7672V36.5684H76.6368V34.3061H68.8358V45.1653H71.7672Z" fill="white"/>
<path d="M81.1224 36.5684V45.1653H84.0537V36.5684H87.1613V34.3061H77.9988V36.5684H81.1224Z" fill="white"/>
<path d="M86.8412 39.7357C86.7931 42.9838 89.276 45.4077 92.5918 45.3592C94.0014 45.3592 95.363 44.9391 96.6765 44.0826L95.5071 42.1273C94.6422 42.7252 93.8092 43.0161 92.9923 43.0161C92.0472 43.0161 91.2943 42.7091 90.7016 42.1112C90.125 41.4971 89.8366 40.7053 89.8366 39.7357C89.8366 38.7661 90.125 37.9743 90.7016 37.3764C91.2943 36.7624 92.0472 36.4553 92.9923 36.4553C93.8092 36.4553 94.6422 36.7462 95.5071 37.3441L96.6765 35.3888C95.363 34.5323 94.0014 34.1122 92.5918 34.1122C89.276 34.0637 86.7931 36.4876 86.8412 39.7357Z" fill="white"/>
<path d="M100.192 45.1653L100.993 42.9676H104.95L105.751 45.1653H108.682L104.325 34.3061H101.618L97.2448 45.1653H100.192ZM102.963 37.5219L104.181 40.8346H101.746L102.963 37.5219Z" fill="white"/>
<path d="M112.436 45.1653V41.5617H113.43L115.72 45.1653H118.892L116.137 41.0931C117.53 40.6891 118.395 39.4448 118.395 37.8774C118.395 36.827 118.027 35.9705 117.29 35.308C116.569 34.6455 115.624 34.3061 114.487 34.3061H109.617V45.1653H112.436ZM112.436 36.5684H114.022C114.903 36.5684 115.512 37.134 115.512 37.9258C115.512 38.75 114.903 39.2994 114.022 39.2994H112.436V36.5684Z" fill="white"/>
<path d="M125.026 45.1653C126.692 45.1653 128.037 44.6644 129.079 43.6625C130.12 42.6444 130.648 41.3355 130.648 39.7357C130.648 38.1198 130.136 36.8108 129.095 35.8089C128.053 34.8071 126.708 34.3061 125.026 34.3061H120.333V45.1653H125.026ZM123.264 36.5684H124.674C125.539 36.5684 126.243 36.8593 126.804 37.4572C127.365 38.0551 127.653 38.8146 127.653 39.7357C127.653 40.6568 127.365 41.4163 126.804 42.0142C126.243 42.6121 125.539 42.903 124.674 42.903H123.264V36.5684Z" fill="white"/>
</svg>
