<svg width="113" height="67" viewBox="0 0 113 67" fill="none" xmlns="../../external.html?link=http://www.w3.org/2000/svg">
<g opacity="0.9">
<path d="M74.8463 48.676C74.4713 49.1151 73.8713 49.4615 73.2713 49.412C73.1963 48.8183 73.4901 48.1874 73.8338 47.7978C74.2088 47.3463 74.8651 47.0247 75.3963 47C75.4588 47.6185 75.2151 48.2245 74.8463 48.676ZM75.3901 49.5295C74.5213 49.48 73.7776 50.0181 73.3651 50.0181C72.9463 50.0181 72.3151 49.5542 71.6276 49.5666C70.7338 49.579 69.9026 50.0799 69.4463 50.8777C68.5088 52.4734 69.2026 54.8359 70.1088 56.1346C70.5526 56.7778 71.0838 57.4829 71.7838 57.4581C72.4463 57.4334 72.7088 57.0314 73.5088 57.0314C74.3151 57.0314 74.5463 57.4581 75.2463 57.4458C75.9713 57.4334 76.4276 56.8026 76.8713 56.1594C77.3776 55.4296 77.5838 54.7184 77.5963 54.6813C77.5838 54.6689 76.1963 54.1432 76.1838 52.5599C76.1713 51.2364 77.2776 50.6056 77.3276 50.5685C76.7026 49.6532 75.7276 49.5542 75.3901 49.5295ZM80.4088 47.736V57.3777H81.9213V54.0814H84.0151C85.9275 54.0814 87.2713 52.7826 87.2713 50.9025C87.2713 49.0224 85.9525 47.736 84.0651 47.736H80.4088ZM81.9213 48.9976H83.6651C84.9776 48.9976 85.7276 49.6903 85.7276 50.9087C85.7276 52.127 84.9776 52.8259 83.6588 52.8259H81.9213V48.9976ZM90.0338 57.452C90.9838 57.452 91.865 56.9757 92.265 56.2212H92.2963V57.3777H93.6963V52.5785C93.6963 51.187 92.5713 50.2902 90.84 50.2902C89.2338 50.2902 88.0463 51.1993 88.0025 52.4486H89.365C89.4775 51.8549 90.0338 51.4653 90.7963 51.4653C91.7213 51.4653 92.24 51.892 92.24 52.6775V53.2093L90.3525 53.3206C88.5963 53.4258 87.6463 54.137 87.6463 55.3739C87.6463 56.6232 88.6275 57.452 90.0338 57.452ZM90.44 56.3078C89.6338 56.3078 89.1213 55.9244 89.1213 55.3368C89.1213 54.7307 89.615 54.3782 90.5588 54.3226L92.24 54.2174V54.7617C92.24 55.6646 91.465 56.3078 90.44 56.3078ZM95.565 60C97.04 60 97.7338 59.4434 98.34 57.755L100.996 50.383H99.4588L97.6775 56.079H97.6463L95.865 50.383H94.2838L96.8463 57.4025L96.7088 57.8292C96.4775 58.5528 96.1025 58.8311 95.4338 58.8311C95.315 58.8311 95.0838 58.8187 94.99 58.8064V59.9629C95.0775 59.9876 95.4525 60 95.565 60Z" fill="#AFAFBB"/>
<path d="M16.2034 21.3506C16.2034 17.1058 18.1471 13.3402 21.1633 10.8926C18.9347 9.07832 16.1196 8 13.0699 8C5.84796 8 0 13.9735 0 21.3506C0 28.7277 5.84796 34.7012 13.0699 34.7012C16.1364 34.7012 18.9514 33.6229 21.18 31.8257C18.1471 29.361 16.2034 25.5783 16.2034 21.3506Z" fill="#EB001B"/>
<path d="M16.2041 21.3508C16.2041 25.5956 18.1478 29.3612 21.164 31.8088C24.1801 29.3612 26.1239 25.5956 26.1239 21.3508C26.1239 17.106 24.1801 13.3404 21.164 10.8928C18.1478 13.3233 16.2041 17.106 16.2041 21.3508Z" fill="#FF5F00"/>
<path d="M29.2741 8C26.2077 8 23.3927 9.07832 21.1641 10.8755C24.1802 13.3231 26.1239 17.0887 26.1239 21.3335C26.1239 25.5783 24.1802 29.3439 21.1641 31.7915C23.3927 33.5887 26.2077 34.667 29.2741 34.667C36.4961 34.667 42.3441 28.6935 42.3441 21.3164C42.3441 13.9393 36.4794 8 29.2741 8Z" fill="#F79E1B"/>
<path d="M76.1909 30.291H70.9014L74.2278 11.3044H79.5174L76.1909 30.291Z" fill="#525CFF"/>
<path d="M66.4317 11.3049L61.3602 24.3518L60.7604 21.5597L58.9609 12.9802C58.9609 12.9802 58.7427 11.2542 56.4524 11.2542H48.1091L48 11.6095C48 11.6095 50.563 12.1172 53.5622 13.7925L58.1974 30.2914H63.7051L72.1575 11.3049H66.4317Z" fill="#525CFF"/>
<path d="M108.147 30.291H113L108.746 11.3044H104.493C102.53 11.3044 102.039 12.7259 102.039 12.7259L94.1865 30.291H99.6942L100.785 27.4481H107.547L108.147 30.291ZM102.312 23.5391L105.093 16.4318L106.674 23.5391H102.312Z" fill="#525CFF"/>
<path d="M94.5691 15.8735L95.3326 11.8123C95.3326 11.8123 92.9877 11 90.5338 11C87.9163 11 81.6451 12.0661 81.6451 17.295C81.6451 22.2193 89.0069 22.2701 89.0069 24.8591C89.0069 27.4482 82.4086 26.9913 80.2273 25.3668L79.4639 29.6312C79.4639 29.6312 81.8087 30.6973 85.4623 30.6973C89.0614 30.6973 94.5691 28.9712 94.5691 24.1992C94.5691 19.2749 87.1528 18.818 87.1528 16.635C87.1528 14.4013 92.3333 14.7059 94.5691 15.8735Z" fill="#525CFF"/>
<path d="M60.7604 21.5082L58.9609 12.9795C58.9609 12.9795 58.7427 11.2534 56.4524 11.2534H48.1091L48 11.6088C48 11.6088 52.0353 12.3703 55.8526 15.3147C59.5607 18.0561 60.7604 21.5082 60.7604 21.5082Z" fill="#525CFF"/>
<g clip-path="url(#clip0_1234_1391)">
<path d="M30.9649 52.7791V57.4504H29.4912V45.9194H33.3997C34.3425 45.901 35.2486 46.2596 35.9351 46.9217C36.6216 47.5378 37.0061 48.4297 36.9878 49.3493C37.0061 50.278 36.6216 51.1699 35.9351 51.7952C35.2486 52.4481 34.4065 52.7791 33.4088 52.7791H30.9649V52.7791ZM30.9649 47.3355V51.3631H33.4363C33.9855 51.3814 34.5164 51.1608 34.8917 50.7654C35.6697 50.0113 35.6789 48.7699 34.9283 47.9883L34.8917 47.9516C34.5164 47.547 33.9855 47.3263 33.4363 47.3447L30.9649 47.3355V47.3355ZM40.3837 49.3033C41.4729 49.3033 42.3333 49.5975 42.9649 50.1768C43.5965 50.7654 43.9077 51.5654 43.9077 52.586V57.4412H42.4981V56.347H42.434C41.8207 57.2481 41.0152 57.6987 39.9992 57.6987C39.1388 57.6987 38.4065 57.4412 37.8299 56.9263C37.2624 56.4481 36.942 55.7401 36.9603 54.9952C36.9603 54.1768 37.2715 53.5332 37.8848 53.0458C38.4981 52.5585 39.3219 52.3194 40.347 52.3194C41.2258 52.3194 41.9397 52.4849 42.5072 52.7975V52.4573C42.5072 51.9516 42.2876 51.4734 41.9031 51.1516C41.5095 50.8021 41.0061 50.609 40.4843 50.609C39.6605 50.609 39.0107 50.9585 38.5255 51.6573L37.2258 50.8389C37.9306 49.8182 38.9832 49.3033 40.3837 49.3033V49.3033ZM38.4798 55.032C38.4798 55.4182 38.6628 55.7768 38.9649 55.9975C39.2944 56.255 39.6972 56.3929 40.1091 56.3837C40.7315 56.3837 41.3265 56.1355 41.7658 55.6941C42.2509 55.2343 42.4981 54.6918 42.4981 54.0665C42.0404 53.6987 41.3997 53.5148 40.5759 53.5148C39.9809 53.5148 39.4775 53.6619 39.0747 53.947C38.6811 54.2412 38.4798 54.5998 38.4798 55.032V55.032ZM51.9992 49.5608L47.0747 60.9263H45.5553L47.3859 56.9539L44.1457 49.5699H45.7475L48.0816 55.2343H48.1182L50.3974 49.5699L51.9992 49.5608Z" fill="#AFAFBB"/>
<path d="M25.0066 51.7678C25.0066 51.3172 24.97 50.8667 24.8967 50.4253H18.6816V52.9724H22.2423C22.0958 53.7908 21.6199 54.5264 20.9242 54.9862V56.6414H23.0478C24.2926 55.492 25.0066 53.7908 25.0066 51.7678Z" fill="#4285F4"/>
<path d="M18.6815 58.2414C20.4572 58.2414 21.9584 57.6529 23.0476 56.6414L20.924 54.9862C20.3291 55.3908 19.5694 55.6207 18.6815 55.6207C16.9607 55.6207 15.5053 54.4529 14.9835 52.8896H12.7959V54.6C13.9126 56.8253 16.1918 58.2414 18.6815 58.2414Z" fill="#34A853"/>
<path d="M14.9836 52.8895C14.709 52.0711 14.709 51.1791 14.9836 50.3515V48.6504H12.796C12.3311 49.5708 12.0889 50.5884 12.0889 51.6205C12.0889 52.6526 12.3311 53.6702 12.796 54.5906L14.9836 52.8895V52.8895Z" fill="#FBBC04"/>
<path d="M18.6815 47.6206C19.6243 47.6022 20.5305 47.9608 21.2078 48.6137L23.0842 46.7286C21.8943 45.5976 20.3199 44.9815 18.6815 44.9999C16.1918 44.9999 13.9126 46.416 12.7959 48.6505L14.9835 50.3608C15.5053 48.7884 16.9607 47.6206 18.6815 47.6206Z" fill="#EA4335"/>
</g>
</g>
<defs>
<clipPath id="clip0_1234_1391">
<rect width="40" height="16" fill="white" transform="translate(12 45)"/>
</clipPath>
</defs>
</svg>
