<svg width="20" height="20" viewBox="0 0 20 20" fill="none" xmlns="../../external.html?link=http://www.w3.org/2000/svg">
<path d="M10 0C4.46429 0 0 4.46429 0 10C0 15.5134 4.46429 20 10 20C15.5134 20 20 15.5357 20 10C20 4.46429 15.5134 0 10 0ZM10 2.70089C11.183 2.70089 12.1205 3.66071 12.1205 4.82143C12.1205 6.00446 11.1607 6.94196 10 6.94196C8.83929 6.94196 7.87946 5.98214 7.87946 4.82143C7.85714 3.66071 8.81696 2.70089 10 2.70089ZM12.2991 15.9821C12.2991 16.6741 11.7411 17.2321 11.0491 17.2321H8.95089C8.25893 17.2321 7.70089 16.6741 7.70089 15.9821V9.55357C7.70089 8.86161 8.25893 8.30357 8.95089 8.30357H11.0491C11.7411 8.30357 12.2991 8.86161 12.2991 9.55357V15.9821Z" fill="#727274"/>
</svg>
