<svg width="49" height="44" viewBox="0 0 49 44" fill="none" xmlns="../../external.html?link=http://www.w3.org/2000/svg">
<path d="M48.1852 11.5843L37.285 0.711344C36.2663 -0.304823 34.7382 -0.304823 33.7195 0.711344L29.0334 5.38571L25.0604 7.11319L19.5594 6.30026L15.1789 1.93074C14.6696 1.42266 14.0584 1.21943 13.4471 1.21943C12.8359 1.21943 12.1228 1.52428 11.7153 1.93074L0.713252 12.8037C-0.305459 13.8199 -0.305459 15.3441 0.713252 16.3603L5.19558 20.8314L5.50119 22.3557C5.60307 22.9654 5.39932 23.4735 4.99184 23.8799L3.56564 25.4042C2.6488 26.3187 2.03758 27.6398 2.03758 28.9608C2.03758 30.1802 2.54693 31.3996 3.46377 32.3141C4.075 32.9238 4.7881 33.3303 5.60307 33.5335C6.11242 35.1594 7.33487 36.4804 9.06668 36.8869C9.57604 38.5127 10.7985 39.8337 12.5303 40.3418C12.8359 41.4596 13.549 42.4758 14.5677 43.0855C15.3827 43.5936 16.2995 43.8984 17.3182 43.8984C18.7444 43.8984 20.0688 43.2887 21.0875 42.2725L21.6987 41.6628C22.6155 42.0693 23.7361 42.2725 24.7548 42.2725C26.3848 42.2725 28.0147 41.6628 29.339 40.6467C31.2746 40.5451 32.9045 39.4273 33.8214 37.6998C34.7382 37.5982 35.5532 37.1917 36.1644 36.6836C37.0812 35.8707 37.5906 34.7529 37.5906 33.5335C37.9981 33.3303 38.3037 33.0254 38.7112 32.7206C40.6467 30.9931 40.9523 28.0462 39.4243 25.9123L43.3972 19.8153L48.2871 14.9377C49.2039 14.1247 49.2039 12.6005 48.1852 11.5843ZM3.26003 14.5312L13.3453 4.36954L16.6051 7.62127L6.5199 17.7829L3.26003 14.5312ZM18.8463 40.2402C18.1332 40.9515 17.0126 41.1548 16.1977 40.6467C15.7902 40.3418 15.4846 40.037 15.3827 39.5289C15.892 38.8176 15.6883 37.903 14.9752 37.3949C14.4658 36.9885 13.6509 36.9885 13.1415 37.3949C12.5303 37.1917 12.0209 36.6836 11.9191 35.9723L12.0209 35.7691C12.5303 35.0578 12.3266 34.1432 11.6135 33.6351C11.0022 33.2287 10.1873 33.3303 9.67791 33.8384C9.16855 33.6351 8.76107 33.2287 8.6592 32.7206C9.27042 32.1109 9.27042 31.1963 8.6592 30.5866C8.14984 30.0786 7.33487 29.9769 6.72365 30.3834L6.62178 30.485C6.31616 30.3834 5.90868 30.2818 5.70494 29.9769C5.39932 29.6721 5.19558 29.2656 5.19558 28.8591C5.19558 28.3511 5.39932 27.843 5.80681 27.4365L7.233 26.0139C7.233 26.0139 7.233 26.0139 7.33487 25.9123L19.1519 39.8337L18.8463 40.2402ZM36.6737 30.5866C36.5719 30.6882 36.5719 30.6882 36.47 30.7899L32.2933 26.6236C31.6821 26.0139 30.7652 26.0139 30.154 26.6236C29.5428 27.2333 29.5428 28.1478 30.154 28.7575L34.6363 33.2287C34.6363 33.7367 34.4326 34.1432 34.127 34.4481C33.9232 34.6513 33.6176 34.7529 33.312 34.7529L28.0147 29.164C27.4035 28.5543 26.4866 28.4527 25.8754 29.0624C25.2642 29.6721 25.1623 30.5866 25.7735 31.1963C25.7735 31.1963 25.7735 31.1963 25.7735 31.2979L30.8671 36.6836C30.4596 37.1917 29.9503 37.4966 29.2372 37.5982L24.0417 31.9076C23.5324 31.2979 22.5137 31.1963 21.9024 31.806C21.2912 32.4157 21.1893 33.3303 21.8006 33.94L26.2829 38.8176C24.7548 39.4273 22.9212 39.1224 21.5968 38.0047L8.6592 22.8638C8.6592 22.4573 8.6592 22.1525 8.55733 21.746L8.35358 20.5266L19.4575 9.34876L21.0875 9.55199L19.6613 10.4665C18.2351 11.2795 17.2164 12.6005 16.707 14.1247C16.5033 15.2425 16.8089 16.4619 17.522 17.3765C18.6426 18.6975 20.4762 19.2056 22.1062 18.6975C22.8193 18.4943 23.4305 18.291 24.0417 17.9862C24.3473 17.8846 24.653 17.7829 24.8567 17.6813C25.6717 17.3765 26.5885 17.5797 27.1997 18.1894L36.2663 27.2333L36.5719 27.5381C37.4887 28.4527 37.4887 29.6721 36.6737 30.5866C36.6737 30.485 36.6737 30.5866 36.6737 30.5866ZM37.1831 23.7783L29.4409 16.0555C28.0147 14.6328 25.7735 14.1247 23.838 14.8361C23.5324 14.9377 23.2268 15.0393 22.9212 15.1409C22.3099 15.3441 21.6987 15.649 21.2912 15.7506C20.8837 15.9538 20.2725 15.8522 19.9669 15.5474C19.7631 15.3441 19.6613 15.0393 19.7631 14.7344C20.0688 14.0231 20.5781 13.4134 21.2912 13.007L26.0792 9.85684L29.5428 8.53582L40.2392 19.2056L37.1831 23.7783ZM42.1748 16.8684L32.0896 6.70673L35.5532 3.25176L45.7403 13.3118L42.1748 16.8684Z" fill="#FFBB1C"/>
</svg>
