<svg width="126" height="49" viewBox="0 0 126 49" fill="none" xmlns="../../external.html?link=http://www.w3.org/2000/svg">
<path d="M36.3755 38.9722H33.5573C32.6674 38.9722 31.9258 39.6988 31.9258 40.5708V48.9999H33.7551V46.287H36.1777C37.1665 46.287 37.9576 45.512 37.9576 44.5431V40.5708C38.007 39.6504 37.2654 38.9722 36.3755 38.9722ZM36.1283 43.9133C36.1283 44.1556 35.9305 44.3978 35.6338 44.3978H34.2495C34.0023 44.3978 33.7551 44.204 33.7551 43.9133V41.2974C33.7551 41.0552 33.9529 40.813 34.2495 40.813H35.6338C35.881 40.813 36.1283 41.0068 36.1283 41.2974V43.9133Z" fill="white"/>
<path d="M43.9903 38.9722H39.5901V40.813H43.3476C43.5454 40.813 43.6937 40.9583 43.6937 41.1521V41.3943H41.0239C40.1834 41.3943 39.4912 42.0725 39.4912 42.896V44.7369C39.4912 45.5604 40.1834 46.2386 41.0239 46.2386H43.9903C44.8308 46.2386 45.523 45.5604 45.523 44.7369V40.4255C45.523 39.6504 44.8308 38.9722 43.9903 38.9722ZM43.6937 43.4774V44.0587C43.6937 44.2524 43.4959 44.4462 43.2982 44.4462H41.716C41.5183 44.4462 41.3205 44.2524 41.3205 44.0587V43.4774C41.3205 43.2836 41.5183 43.0898 41.716 43.0898H43.2982C43.4959 43.0898 43.6937 43.2351 43.6937 43.4774Z" fill="white"/>
<path d="M65.8429 38.9722H61.4426V40.813H65.2001C65.3979 40.813 65.5462 40.9583 65.5462 41.1521V41.3943H62.8764C62.0359 41.3943 61.3438 42.0725 61.3438 42.896V44.7369C61.3438 45.5604 62.0359 46.2386 62.8764 46.2386H65.8429C66.6834 46.2386 67.3755 45.5604 67.3755 44.7369V40.4255C67.3755 39.6504 66.6834 38.9722 65.8429 38.9722ZM65.5462 43.4774V44.0587C65.5462 44.2524 65.3485 44.4462 65.1507 44.4462H63.5686C63.3708 44.4462 63.1731 44.2524 63.1731 44.0587V43.4774C63.1731 43.2836 63.3708 43.0898 63.5686 43.0898H65.1507C65.3979 43.0898 65.5462 43.2351 65.5462 43.4774Z" fill="white"/>
<path d="M60.0585 38.9723V40.8131H56.5976C56.3999 40.8131 56.2516 40.9584 56.2516 41.1522V41.3944C56.2516 41.5882 56.3999 41.7335 56.5976 41.7335H58.4764C59.3663 41.7335 60.1079 42.4602 60.1079 43.3321V44.5432C60.1079 45.5121 59.3169 46.2387 58.3775 46.2387H54.5211V44.3979H57.9325C58.1303 44.3979 58.2786 44.2525 58.2786 44.0588V43.8166C58.2786 43.6228 58.1303 43.4775 57.9325 43.4775H56.2516C55.2627 43.4775 54.4717 42.7024 54.4717 41.7335V40.5224C54.4717 39.6505 55.2133 38.9238 56.1032 38.9238H60.0585V38.9723Z" fill="white"/>
<path d="M79.1421 42.2179V40.4256C79.1421 39.602 78.45 38.9238 77.6095 38.9238H74.7419C73.852 38.9238 73.1104 39.6505 73.1104 40.5224V44.6885C73.1104 45.5605 73.852 46.2387 74.6925 46.2387H79.0433V44.3979H75.2363C75.0385 44.3979 74.8902 44.2525 74.8902 44.0588V43.7681L79.1421 42.2179ZM74.8902 42.0242V41.1522C74.8902 40.9584 75.0385 40.8131 75.2363 40.8131H76.9667C77.1645 40.8131 77.3128 40.9584 77.3128 41.1522L74.8902 42.0242Z" fill="white"/>
<path d="M52.9882 47.1591V38.9238H51.1589V43.865C51.1589 44.1557 50.9117 44.3494 50.6645 44.3494H49.3296C49.0329 44.3494 48.8352 44.1072 48.8352 43.865V38.9723H47.0059C47.0059 38.9723 47.0059 43.3321 47.0059 44.4948C47.0059 45.3667 47.6486 46.2871 48.8352 46.2871H51.1589V46.6262C51.1589 47.0622 50.8128 47.1591 50.5162 47.1591H47.0059V49H51.1589C52.1971 49 52.9882 48.1764 52.9882 47.1591Z" fill="white"/>
<path d="M72.023 38.0033V36.2109H70.6881C69.6993 36.2109 68.9082 36.986 68.9082 37.9549V46.2386H70.7375V40.7161H72.023V38.9722H70.7375V38.5362C70.7375 38.2455 70.9847 38.0033 71.2814 38.0033H72.023Z" fill="white"/>
<path d="M85.52 39.7473V38.9722H82.7513C81.8119 38.9722 81.0703 39.6988 81.0703 40.6192V44.64C81.0703 45.5604 81.8119 46.287 82.7513 46.287H85.52V45.512H82.8007C82.2569 45.512 81.8614 45.076 81.8614 44.5915V40.7161C81.8614 40.1832 82.3063 39.7957 82.8007 39.7957H85.52V39.7473Z" fill="white"/>
<path d="M97.6826 38.9722H96.941C96.051 38.9722 95.5566 39.5535 95.5566 40.3286V46.287H96.3477V40.5223C96.3477 40.0864 96.496 39.6988 97.0893 39.6988H97.6826V38.9722Z" fill="white"/>
<path d="M87.5475 38.9722V39.7473H91.7005C92.1455 39.7473 92.4916 40.0864 92.4916 40.5223V41.4428H89.179C88.2397 41.4428 87.498 42.1694 87.498 43.0898V44.64C87.498 45.5604 88.2397 46.287 89.179 46.287H91.6016C92.541 46.287 93.2826 45.5604 93.2826 44.64V40.5223C93.2826 39.6504 92.5904 38.9722 91.7005 38.9722H87.5475ZM91.5522 45.4635H89.2285C88.6846 45.4635 88.2891 45.0275 88.2891 44.5431V43.0898C88.2891 42.5569 88.7341 42.1694 89.2285 42.1694H92.4916V44.5431C92.4916 45.076 92.0466 45.4635 91.5522 45.4635Z" fill="white"/>
<path d="M104.209 36.2109V38.9237H100.946C100.006 38.9237 99.2646 39.6504 99.2646 40.5708V44.5916C99.2646 45.512 100.006 46.2386 100.946 46.2386H103.319C104.258 46.2386 105 45.512 105 44.5916V36.2109H104.209ZM103.269 45.4635H101.045C100.501 45.4635 100.105 45.0275 100.105 44.5431V40.6677C100.105 40.1348 100.55 39.7473 101.045 39.7473H104.258V44.5916C104.209 45.076 103.764 45.4635 103.269 45.4635Z" fill="white"/>
<path d="M27.279 46.2387H22.6315C21.7416 46.2387 21 45.5121 21 44.6401V40.5224C21 39.6505 21.7416 38.9238 22.6315 38.9238H27.279C28.1689 38.9238 28.9105 39.6505 28.9105 40.5224V44.6401C28.9105 45.5605 28.1689 46.2387 27.279 46.2387Z" fill="#ED1D24"/>
<path d="M22.2361 38.5363C22.4339 37.2768 23.6205 36.3564 24.9554 36.3564C26.2903 36.3564 27.4769 37.2768 27.6746 38.4879C28.0702 38.5848 28.4657 38.7785 28.7623 39.0692V38.7301C28.7623 36.6471 27.0813 35 24.9554 35C22.8294 35 21.1484 36.6471 21.1484 38.7301V39.1176C21.4451 38.827 21.7912 38.5848 22.2361 38.5363Z" fill="#ED1D24"/>
<path d="M47.3493 6.65576H40.5273C40.0257 6.65576 39.6244 6.95378 39.6244 7.45046L36.8153 24.8346C36.715 25.1326 37.016 25.5299 37.4173 25.5299H40.728C41.2296 25.5299 41.6309 25.2319 41.6309 24.7352L42.3331 20.0664C42.4335 19.5697 42.8348 19.2717 43.2361 19.2717H45.4432C49.9577 19.2717 52.5662 17.0862 53.2684 12.8147C53.5694 10.9273 53.2684 9.43722 52.3655 8.44384C51.3623 7.35113 49.6568 6.65576 47.3493 6.65576ZM48.1519 13.1127C47.7506 15.5962 45.9448 15.5962 44.0386 15.5962H43.0354L43.7377 11.0266C43.7377 10.7286 44.0386 10.5299 44.3396 10.5299H44.8412C46.0451 10.5299 47.249 10.5299 47.8509 11.2253C48.1519 11.6226 48.2522 12.2187 48.1519 13.1127Z" fill="#456DE8"/>
<path d="M67.9157 13.0129H64.6051C64.3041 13.0129 64.1034 13.2115 64.0031 13.5095L63.9028 14.4036L63.7021 14.1056C62.9999 13.1122 61.3947 12.7148 59.7895 12.7148C56.1779 12.7148 53.0678 15.397 52.4659 19.2711C52.1649 21.1586 52.5662 23.046 53.6698 24.238C54.673 25.4301 56.0775 25.9268 57.783 25.9268C60.6924 25.9268 62.2976 24.0393 62.2976 24.0393L62.1973 24.9334C62.097 25.2314 62.3979 25.6288 62.7992 25.6288H65.8089C66.3106 25.6288 66.7119 25.3307 66.7119 24.8341L68.5177 13.7082C68.5177 13.3109 68.2167 13.0129 67.9157 13.0129ZM63.3008 19.2711C62.9999 21.1586 61.495 22.3506 59.5889 22.3506C58.5856 22.3506 57.8834 22.0526 57.3817 21.4566C56.8801 20.8605 56.6795 20.0658 56.8801 19.1718C57.1811 17.2844 58.686 15.993 60.5921 15.993C61.495 15.993 62.2976 16.291 62.7992 16.887C63.2005 17.5824 63.4012 18.3771 63.3008 19.2711Z" fill="#456DE8"/>
<path d="M85.3719 13.0132H82.0612C81.7603 13.0132 81.4593 13.2119 81.2586 13.4105L76.7441 20.0662L74.8379 13.7085C74.7376 13.3112 74.3363 13.0132 73.935 13.0132H70.7247C70.3234 13.0132 70.0224 13.4105 70.223 13.8079L73.8347 24.3377L70.4237 29.1059C70.1227 29.5032 70.4237 29.9999 70.9253 29.9999H74.236C74.537 29.9999 74.8379 29.8013 75.0386 29.6026L85.8735 13.9072C86.0742 13.5099 85.8735 13.0132 85.3719 13.0132Z" fill="#456DE8"/>
<path d="M96.3073 6.65576H89.4853C88.9837 6.65576 88.5824 6.95378 88.5824 7.45046L85.7734 24.8346C85.673 25.1326 85.974 25.5299 86.3753 25.5299H89.8866C90.1876 25.5299 90.4886 25.3313 90.5889 24.9339L91.3915 19.967C91.4918 19.4703 91.8931 19.1723 92.2944 19.1723H94.5015C99.0161 19.1723 101.624 16.9869 102.327 12.7154C102.628 10.8279 102.327 9.33788 101.424 8.3445C100.32 7.35113 98.6148 6.65576 96.3073 6.65576ZM97.1099 13.1127C96.7086 15.5962 94.9028 15.5962 92.9966 15.5962H91.9934L92.6957 11.0266C92.6957 10.7286 92.9966 10.5299 93.2976 10.5299H93.7992C95.0031 10.5299 96.207 10.5299 96.8089 11.2253C97.1099 11.6226 97.2102 12.2187 97.1099 13.1127Z" fill="#58CBFF"/>
<path d="M116.773 13.0129H113.462C113.161 13.0129 112.961 13.2115 112.861 13.5095L112.76 14.4036L112.56 14.1056C111.857 13.1122 110.252 12.7148 108.647 12.7148C105.035 12.7148 101.925 15.397 101.323 19.2711C101.022 21.1586 101.424 23.046 102.527 24.238C103.53 25.4301 104.935 25.9268 106.64 25.9268C109.55 25.9268 111.155 24.0393 111.155 24.0393L111.055 24.9334C110.954 25.2314 111.255 25.6288 111.657 25.6288H114.566C115.068 25.6288 115.469 25.3307 115.469 24.8341L117.275 13.7082C117.475 13.3109 117.174 13.0129 116.773 13.0129ZM112.259 19.2711C111.958 21.1586 110.453 22.3506 108.547 22.3506C107.644 22.3506 106.841 22.0526 106.339 21.4566C105.838 20.8605 105.637 20.0658 105.838 19.1718C106.139 17.2844 107.644 15.993 109.55 15.993C110.453 15.993 111.255 16.291 111.757 16.887C112.158 17.5824 112.359 18.3771 112.259 19.2711Z" fill="#58CBFF"/>
<path d="M120.686 7.15243L117.877 24.9339C117.777 25.2319 118.078 25.6292 118.479 25.6292H121.288C121.789 25.6292 122.191 25.3312 122.191 24.8345L125 7.45045C125.1 7.15243 124.799 6.75508 124.398 6.75508H121.188C120.987 6.65575 120.686 6.95376 120.686 7.15243Z" fill="#58CBFF"/>
<path d="M8.32358 29.0064L8.8252 25.7283H7.62132H2.10352L5.91581 1.29118C5.91581 1.19184 6.01614 1.0925 6.01614 1.0925C6.11646 1.0925 6.21678 0.993164 6.21678 0.993164H15.6472C18.7572 0.993164 20.9644 1.68853 22.0679 2.97992C22.5695 3.57595 22.9708 4.17197 23.0712 4.86734C23.2718 5.5627 23.2718 6.45674 23.0712 7.45012V7.54946V8.24482L23.5728 8.54283C23.9741 8.74151 24.3754 9.03952 24.6763 9.33753C25.1779 9.83422 25.3786 10.5296 25.5792 11.225C25.6796 12.0197 25.6796 12.9137 25.4789 14.0064C25.2783 15.1985 24.877 16.2912 24.275 17.1852C23.7734 17.9799 23.1715 18.6753 22.4692 19.172C21.7669 19.6687 20.9644 20.066 19.9611 20.2647C19.0582 20.4634 18.055 20.662 16.8511 20.662H16.1488C15.6472 20.662 15.1456 20.8607 14.7443 21.1587C14.343 21.4567 14.042 21.9534 14.042 22.4501L13.9417 22.7481L13.0388 28.6091V28.8077C13.0388 28.9071 13.0388 28.9071 12.9385 28.9071H12.8381C12.8381 29.0064 8.32358 29.0064 8.32358 29.0064Z" fill="#456DE8"/>
<path d="M24.0741 7.64893C24.0741 7.74826 24.0741 7.94694 24.0741 8.14561C22.8702 14.5032 18.5563 16.5893 13.1388 16.5893H10.3297C9.62746 16.5893 9.12584 17.086 9.02552 17.682L7.62099 26.5231L7.21969 29.0065C7.11937 29.4039 7.52066 29.8012 7.92196 29.8012H12.8378C13.4398 29.8012 13.9414 29.4039 14.0417 28.8079V28.6092L14.9446 22.8476L15.0449 22.5496C15.1453 21.9536 15.6469 21.5562 16.2488 21.5562H16.9511C21.6663 21.5562 25.3783 19.6688 26.4818 14.1059C26.9834 11.8211 26.6825 9.83436 25.4786 8.54297C25.0773 8.24495 24.676 7.8476 24.0741 7.64893Z" fill="#58CBFF"/>
<path d="M22.8701 7.15245C22.6694 7.05311 22.4688 6.95378 22.2681 6.95378C22.0675 6.95378 21.8668 6.85444 21.6662 6.85444C20.9639 6.7551 20.061 6.65576 19.2584 6.65576H11.8345C11.6338 6.65576 11.4332 6.65576 11.3328 6.7551C10.9315 6.95378 10.7309 7.25179 10.6306 7.64914L9.02539 17.4836V17.7816C9.12571 17.0862 9.72766 16.6889 10.3296 16.6889H13.1387C18.5561 16.6889 22.7697 14.5034 24.0739 8.24517C24.0739 7.94715 24.0739 7.74848 24.0739 7.64914C23.773 7.45046 23.3717 7.35113 23.0707 7.25179C22.9704 7.15245 22.8701 7.15245 22.8701 7.15245Z" fill="#3145B0"/>
<path d="M10.6309 7.64901C10.7312 7.25166 10.9319 6.95364 11.3332 6.75497C11.5338 6.65563 11.6342 6.65563 11.8348 6.65563H19.2588C20.1617 6.65563 20.9643 6.75497 21.6665 6.8543C21.8672 6.8543 22.0678 6.95364 22.2685 6.95364C22.4691 6.95364 22.6698 7.05298 22.8704 7.15232C22.9707 7.15232 23.0711 7.25166 23.1714 7.25166C23.5727 7.35099 23.8736 7.54967 24.1746 7.64901C24.5759 5.36424 24.1746 3.77483 22.8704 2.28477C21.4659 0.695364 18.9578 0 15.6471 0H6.21668C5.61474 0 5.0128 0.496689 4.91247 1.09272L0.999851 25.7285C0.899527 26.2252 1.30082 26.6225 1.80244 26.6225H7.62121L9.02574 17.4834L10.6309 7.64901Z" fill="#456DE8"/>
</svg>
