<svg width="17" height="16" viewBox="0 0 17 16" fill="none" xmlns="../../external.html?link=http://www.w3.org/2000/svg">
<g clip-path="url(#clip0_1607_9656)">
<path d="M12.9999 0H6.29297V16H12.9999C14.9329 16 16.4999 14.433 16.4999 12.5V3.5C16.4999 1.567 14.9329 0 12.9999 0Z" fill="#FF4B55"/>
<path d="M4 0C2.067 0 0.5 1.567 0.5 3.5V12.5C0.5 14.433 2.067 16 4 16H6.29309V0H4Z" fill="#66C046"/>
<path d="M6.29508 11.5123C8.23463 11.5123 9.80695 9.93996 9.80695 8.0004C9.80695 6.06085 8.23463 4.48853 6.29508 4.48853C4.35552 4.48853 2.7832 6.06085 2.7832 8.0004C2.7832 9.93996 4.35552 11.5123 6.29508 11.5123Z" fill="#FFE15A"/>
<path d="M7.46617 6.82809V8.39028C7.46617 9.03631 6.94058 9.5619 6.29455 9.5619C5.64852 9.5619 5.12292 9.03631 5.12292 8.39028V6.82809H7.46617ZM7.8567 6.047H4.73233C4.51664 6.047 4.3418 6.22184 4.3418 6.43753V8.39025C4.3418 9.46872 5.21608 10.343 6.29452 10.343C7.37295 10.343 8.24723 9.46868 8.24723 8.39025V6.43753C8.24727 6.22184 8.07239 6.047 7.8567 6.047Z" fill="#FF4B55"/>
<path d="M7.12198 7.17212V8.27556C7.12198 8.7319 6.75073 9.10315 6.29439 9.10315C5.83805 9.10315 5.4668 8.7319 5.4668 8.27556V7.17212H7.12198Z" fill="#F5F5F5"/>
<path d="M4.73044 6.63275C4.83829 6.63275 4.92572 6.54532 4.92572 6.43747C4.92572 6.32962 4.83829 6.24219 4.73044 6.24219C4.62259 6.24219 4.53516 6.32962 4.53516 6.43747C4.53516 6.54532 4.62259 6.63275 4.73044 6.63275Z" fill="#FFE15A"/>
<path d="M7.85544 6.63275C7.96329 6.63275 8.05072 6.54532 8.05072 6.43747C8.05072 6.32962 7.96329 6.24219 7.85544 6.24219C7.74759 6.24219 7.66016 6.32962 7.66016 6.43747C7.66016 6.54532 7.74759 6.63275 7.85544 6.63275Z" fill="#FFE15A"/>
<path d="M4.73044 8.19488C4.83829 8.19488 4.92572 8.10745 4.92572 7.9996C4.92572 7.89175 4.83829 7.80432 4.73044 7.80432C4.62259 7.80432 4.53516 7.89175 4.53516 7.9996C4.53516 8.10745 4.62259 8.19488 4.73044 8.19488Z" fill="#FFE15A"/>
<path d="M7.85544 8.19488C7.96329 8.19488 8.05072 8.10745 8.05072 7.9996C8.05072 7.89175 7.96329 7.80432 7.85544 7.80432C7.74759 7.80432 7.66016 7.89175 7.66016 7.9996C7.66016 8.10745 7.74759 8.19488 7.85544 8.19488Z" fill="#FFE15A"/>
<path d="M6.29294 6.63275C6.40079 6.63275 6.48822 6.54532 6.48822 6.43747C6.48822 6.32962 6.40079 6.24219 6.29294 6.24219C6.18509 6.24219 6.09766 6.32962 6.09766 6.43747C6.09766 6.54532 6.18509 6.63275 6.29294 6.63275Z" fill="#FFE15A"/>
<path d="M7.46481 9.63483C7.57266 9.63483 7.66009 9.54739 7.66009 9.43954C7.66009 9.33169 7.57266 9.24426 7.46481 9.24426C7.35696 9.24426 7.26953 9.33169 7.26953 9.43954C7.26953 9.54739 7.35696 9.63483 7.46481 9.63483Z" fill="#FFE15A"/>
<path d="M5.14255 9.63483C5.2504 9.63483 5.33783 9.54739 5.33783 9.43954C5.33783 9.33169 5.2504 9.24426 5.14255 9.24426C5.0347 9.24426 4.94727 9.33169 4.94727 9.43954C4.94727 9.54739 5.0347 9.63483 5.14255 9.63483Z" fill="#FFE15A"/>
<path d="M6.54741 7.90088V8.23719C6.54741 8.37628 6.43425 8.48941 6.29519 8.48941C6.15612 8.48941 6.04297 8.37625 6.04297 8.23719V7.90088H6.54741Z" fill="#41479B"/>
<path d="M6.54741 7.10388V7.44019C6.54741 7.57929 6.43425 7.69241 6.29519 7.69241C6.15612 7.69241 6.04297 7.57926 6.04297 7.44019V7.10388H6.54741Z" fill="#41479B"/>
<path d="M6.54741 8.70667V9.04298C6.54741 9.18207 6.43425 9.2952 6.29519 9.2952C6.15612 9.2952 6.04297 9.18204 6.04297 9.04298V8.70667H6.54741Z" fill="#41479B"/>
<path d="M7.22709 7.90088V8.23719C7.22709 8.37628 7.11394 8.48941 6.97487 8.48941C6.83581 8.48941 6.72266 8.37625 6.72266 8.23719V7.90088H7.22709Z" fill="#41479B"/>
<path d="M5.86772 7.90088V8.23719C5.86772 8.37628 5.75456 8.48941 5.6155 8.48941C5.47644 8.48941 5.36328 8.37625 5.36328 8.23719V7.90088H5.86772Z" fill="#41479B"/>
</g>
<defs>
<clipPath id="clip0_1607_9656">
<rect width="16" height="16" fill="white" transform="translate(0.5)"/>
</clipPath>
</defs>
</svg>
