<svg width="20" height="20" viewBox="0 0 20 20" fill="none" xmlns="../../external.html?link=http://www.w3.org/2000/svg">
<path d="M3.33301 6.66683L2.6259 5.95972L1.91879 6.66683L2.6259 7.37394L3.33301 6.66683ZM15.6663 8.3335C15.6663 8.88578 16.1141 9.3335 16.6663 9.3335C17.2186 9.3335 17.6663 8.88578 17.6663 8.3335L15.6663 8.3335ZM5.95923 2.62639L2.6259 5.95972L4.04011 7.37394L7.37345 4.0406L5.95923 2.62639ZM2.6259 7.37394L5.95923 10.7073L7.37345 9.29306L4.04011 5.95972L2.6259 7.37394ZM3.33301 7.66683L14.9997 7.66683L14.9997 5.66683L3.33301 5.66683L3.33301 7.66683ZM14.9997 7.66683C15.3679 7.66683 15.6663 7.96531 15.6663 8.3335L17.6663 8.3335C17.6663 6.86074 16.4724 5.66683 14.9997 5.66683L14.9997 7.66683Z" fill="#66667A"/>
<path d="M16.667 13.3333L17.3741 12.6262L18.0812 13.3333L17.3741 14.0404L16.667 13.3333ZM4.16699 13.3333L4.16699 14.3333L4.16699 13.3333ZM1.50033 11.6667C1.50033 11.1144 1.94804 10.6667 2.50033 10.6667C3.05261 10.6667 3.50033 11.1144 3.50033 11.6667L1.50033 11.6667ZM14.0408 9.29289L17.3741 12.6262L15.9599 14.0404L12.6266 10.7071L14.0408 9.29289ZM17.3741 14.0404L14.0408 17.3738L12.6266 15.9596L15.9599 12.6262L17.3741 14.0404ZM16.667 14.3333L4.16699 14.3333L4.16699 12.3333L16.667 12.3333L16.667 14.3333ZM4.16699 14.3333C2.69423 14.3333 1.50033 13.1394 1.50033 11.6667L3.50033 11.6667C3.50033 12.0349 3.7988 12.3333 4.16699 12.3333L4.16699 14.3333Z" fill="#66667A"/>
</svg>
