<svg width="241" height="264" viewBox="0 0 241 264" fill="none" xmlns="../../external.html?link=http://www.w3.org/2000/svg">
<path d="M210.032 201.629C214.653 204.296 214.653 208.702 210.032 211.253L124.775 261.112C120.269 263.779 112.875 263.779 108.254 261.112L30.8522 216.239C26.2312 213.572 26.2312 209.166 30.8522 206.615L116.11 156.756C120.616 154.089 128.009 154.089 132.63 156.756L210.032 201.629Z" fill="#FFCE00"/>
<path d="M110.017 178.757L71.3467 156.14V180.154L110.017 202.771V178.757Z" fill="url(#paint0_linear)"/>
<path d="M120.379 160.714L81.7093 138.097C76.0225 141.401 71.3467 149.533 71.3467 156.14L110.017 178.757C110.017 172.15 114.566 164.018 120.379 160.714Z" fill="url(#paint1_linear)"/>
<path d="M40.6382 103.537L40.7646 126.027C40.7646 126.408 41.0173 126.662 41.5228 126.916C42.281 127.17 43.292 127.043 43.9239 126.662C44.0503 126.662 44.0503 126.535 44.1766 126.535C46.0722 124.883 48.3469 123.231 51.0008 121.707C53.5282 120.182 56.3085 118.911 59.215 117.768C59.3414 117.768 59.4678 117.641 59.4678 117.641C59.8469 117.387 59.9733 117.133 59.9733 116.878V94.3888C59.9733 94.6429 59.8469 94.897 59.4678 95.1512C59.3414 95.1512 59.215 95.2782 59.215 95.2782C56.3085 96.4218 53.5282 97.6924 51.0008 99.2171C48.4733 100.742 46.1986 102.267 44.1766 104.045C43.9239 104.172 43.9239 104.172 43.7975 104.172C43.1656 104.554 42.281 104.681 41.5228 104.427C41.0173 104.172 40.6382 103.791 40.6382 103.537Z" fill="#E8A30A"/>
<path d="M48.2205 97.6923C45.4403 99.3441 43.0392 100.996 41.0173 102.775C40.3854 103.41 40.6381 104.045 41.5227 104.427C42.281 104.681 43.1656 104.681 43.7975 104.299C43.9238 104.172 43.9238 104.172 44.0502 104.045C45.9458 102.394 48.2205 100.742 50.8744 99.2171C53.4018 97.6923 56.182 96.4217 59.0886 95.2782C59.215 95.2782 59.3414 95.1511 59.3414 95.1511C59.9732 94.77 60.0996 94.2617 59.5941 93.8805C59.0886 93.3723 57.9512 93.2452 57.0666 93.6264C53.9073 94.77 51.0007 96.1676 48.2205 97.6923Z" fill="#FFD524"/>
<path d="M158.797 180.535L120.127 158.046C120.632 158.3 121.011 159.062 121.011 159.952C121.011 160.841 121.39 161.604 121.896 161.858L160.566 184.474C160.061 184.22 159.681 183.458 159.681 182.568C159.555 181.552 159.302 180.917 158.797 180.535Z" fill="url(#paint2_linear)"/>
<path d="M189.885 123.867L151.341 101.25C149.445 100.107 146.791 100.361 144.011 102.012L182.681 124.629C185.462 122.977 188.115 122.723 189.885 123.867Z" fill="url(#paint3_linear)"/>
<path d="M74.3796 186.761L113.05 209.378C111.154 208.235 110.017 205.947 110.017 202.644L71.3467 180.154C71.4731 183.458 72.6104 185.745 74.3796 186.761Z" fill="url(#paint4_linear)"/>
<path d="M120.38 166.686C117.473 168.338 115.198 172.404 115.198 175.707L115.325 199.722C115.325 203.025 117.726 204.423 120.506 202.644L139.967 191.336C141.231 190.573 142.242 188.794 142.242 187.27C142.242 185.745 143.253 183.966 144.517 183.204L158.544 175.072C159.808 174.31 160.819 174.945 160.819 176.47C160.819 177.994 161.83 178.502 163.094 177.74L182.555 166.432C185.462 164.78 187.736 160.714 187.736 157.411L187.61 133.396C187.61 130.093 185.209 128.695 182.429 130.347L120.38 166.686Z" fill="#FFCE00"/>
<path d="M182.555 124.629C188.242 121.325 192.918 123.994 192.918 130.601L193.044 154.615C193.044 161.222 188.495 169.354 182.681 172.658L162.588 184.347C160.945 185.237 159.681 184.474 159.555 182.695C159.555 180.79 158.165 180.027 156.522 181.044L146.286 186.888C144.643 187.778 143.379 190.192 143.379 191.971C143.379 193.877 142.116 196.164 140.473 197.053L120.379 208.743C114.693 212.046 110.017 209.378 110.017 202.771V178.757C110.017 172.149 114.566 164.018 120.379 160.714L182.555 124.629ZM115.198 199.722C115.198 203.025 117.599 204.423 120.379 202.644L139.841 191.336C141.105 190.573 142.116 188.794 142.116 187.27C142.116 185.745 143.127 183.966 144.39 183.204L158.418 175.072C159.681 174.31 160.692 174.945 160.692 176.47C160.692 177.994 161.703 178.502 162.967 177.74L182.429 166.432C185.335 164.78 187.61 160.714 187.61 157.411L187.484 133.396C187.484 130.093 185.082 128.695 182.302 130.347L120.379 166.686C117.473 168.338 115.198 172.404 115.198 175.707V199.722Z" fill="#131313"/>
<path d="M129.352 103.537V118.53L153.868 132.761V117.768L129.352 103.537Z" fill="#131313"/>
<path d="M38.7424 125.391V140.385C38.7424 132.507 44.0501 124.629 54.4127 118.53C64.7753 112.558 78.4236 109.509 91.9455 109.509C105.467 109.509 118.989 112.558 129.352 118.53V103.537C118.989 97.4383 105.467 94.5159 91.9455 94.5159C78.2972 94.5159 64.7753 97.4383 54.4127 103.537C44.0501 109.509 38.7424 117.387 38.7424 125.391Z" fill="#131313"/>
<path d="M51.5061 148.643L76.0225 163.001V177.994L51.6325 163.636C40.6381 157.283 35.204 148.898 35.204 140.512V125.518C35.0776 133.904 40.6381 142.29 51.5061 148.643Z" fill="#1B1B1B"/>
<path d="M51.7585 102.012C29.6432 114.845 29.5169 135.81 51.5058 148.643L76.0222 163C76.7804 163.382 77.9178 163.382 78.5496 163C79.3079 162.619 79.3079 161.857 78.5496 161.476L54.1596 147.118C43.797 141.146 38.7421 133.268 38.7421 125.391C38.7421 117.513 44.0498 109.635 54.4124 103.536C64.775 97.4374 78.2969 94.515 91.9452 94.515C105.467 94.515 118.989 97.5645 129.352 103.536L153.868 117.767C154.626 118.148 155.764 118.148 156.395 117.767C157.154 117.386 157.154 116.623 156.395 116.242L131.879 102.012C109.89 89.1785 74.0002 89.1785 51.7585 102.012Z" fill="#303030"/>
<path d="M74.127 161.095V179.011C74.127 179.392 74.3797 179.646 74.8852 179.9V161.985C74.5061 161.731 74.127 161.349 74.127 161.095Z" fill="#E8A30A"/>
<path d="M91.8191 184.474V166.559C91.8191 166.813 91.6927 167.194 91.3136 167.321C90.6817 167.702 89.5444 167.829 88.7861 167.575V185.491C89.5444 185.745 90.6817 185.618 91.3136 185.237C91.5663 184.983 91.8191 184.728 91.8191 184.474Z" fill="#E8A30A"/>
<path d="M74.7589 160.333C74.0006 160.841 74.127 161.604 75.0116 161.985L88.6599 167.575C89.4182 167.829 90.5555 167.702 91.1874 167.321C91.8193 166.94 91.9456 166.178 91.1874 165.796L79.561 159.062C78.8028 158.681 77.6654 158.681 77.0336 159.062L74.7589 160.333Z" fill="#FFD524"/>
<path d="M75.0115 161.985V179.9L88.6598 185.491V167.448L75.0115 161.985Z" fill="#E8A30A"/>
<path d="M127.33 128.314C139.967 120.944 145.402 111.161 143 102.521L143.885 102.012L182.555 124.629L120.38 160.714L81.7095 138.097L83.0996 137.335C97.7589 138.733 114.566 135.683 127.33 128.314Z" fill="url(#paint5_linear)"/>
<path opacity="0.44" d="M237.419 47.9937L132.515 2.88853C127.894 0.221645 120.384 0.221645 115.994 2.88853L3.46577 52.7477C1.27078 54.1392 0 55.7625 0 57.5017L27.3864 211.138C27.3864 212.993 28.5416 214.616 30.8521 215.892L108.37 260.765C112.991 263.432 120.5 263.432 124.89 260.765L210.148 210.906C212.343 209.514 213.614 207.891 213.614 206.152L241 52.6318C240.769 51.0085 239.614 49.2692 237.419 47.9937Z" fill="url(#paint6_linear)"/>
<defs>
<linearGradient id="paint0_linear" x1="80.7564" y1="200.198" x2="121.087" y2="116.838" gradientUnits="userSpaceOnUse">
<stop stop-color="#1B1B1B"/>
<stop offset="0.4794" stop-color="#1B1B1B"/>
<stop offset="0.5973" stop-color="#303030"/>
<stop offset="1" stop-color="#303030"/>
</linearGradient>
<linearGradient id="paint1_linear" x1="75.9731" y1="197.883" x2="116.303" y2="114.523" gradientUnits="userSpaceOnUse">
<stop stop-color="#1B1B1B"/>
<stop offset="0.4794" stop-color="#1B1B1B"/>
<stop offset="0.5973" stop-color="#303030"/>
<stop offset="1" stop-color="#303030"/>
</linearGradient>
<linearGradient id="paint2_linear" x1="160.484" y1="171.22" x2="120.112" y2="171.22" gradientUnits="userSpaceOnUse">
<stop stop-color="#645D45"/>
<stop offset="1" stop-color="#CAF0F8"/>
</linearGradient>
<linearGradient id="paint3_linear" x1="116.824" y1="217.648" x2="157.155" y2="134.287" gradientUnits="userSpaceOnUse">
<stop stop-color="#1B1B1B"/>
<stop offset="0.4794" stop-color="#1B1B1B"/>
<stop offset="0.5973" stop-color="#303030"/>
<stop offset="1" stop-color="#303030"/>
</linearGradient>
<linearGradient id="paint4_linear" x1="87.9698" y1="203.688" x2="128.3" y2="120.327" gradientUnits="userSpaceOnUse">
<stop stop-color="#1B1B1B"/>
<stop offset="0.4794" stop-color="#1B1B1B"/>
<stop offset="0.5973" stop-color="#303030"/>
<stop offset="1" stop-color="#303030"/>
</linearGradient>
<linearGradient id="paint5_linear" x1="95.7196" y1="207.437" x2="136.05" y2="124.077" gradientUnits="userSpaceOnUse">
<stop stop-color="#1B1B1B"/>
<stop offset="0.4794" stop-color="#1B1B1B"/>
<stop offset="0.5973" stop-color="#303030"/>
<stop offset="1" stop-color="#303030"/>
</linearGradient>
<linearGradient id="paint6_linear" x1="120.496" y1="203.642" x2="120.496" y2="97.5407" gradientUnits="userSpaceOnUse">
<stop stop-color="#FFBB13" stop-opacity="0.63"/>
<stop offset="0.4323" stop-color="#FFB905" stop-opacity="0.22"/>
<stop offset="0.9635" stop-color="#FFE101" stop-opacity="0"/>
</linearGradient>
</defs>
</svg>
