<svg width="263" height="288" viewBox="0 0 263 288" fill="none" xmlns="../../external.html?link=http://www.w3.org/2000/svg">
<path d="M229.205 220.131C234.248 223.045 234.248 227.86 229.205 230.648L136.165 285.135C131.248 288.049 123.179 288.049 118.136 285.135L33.6684 236.097C28.6255 233.182 28.6255 228.367 33.6684 225.579L126.709 171.093C131.626 168.178 139.695 168.178 144.737 171.093L229.205 220.131Z" fill="#8FD559"/>
<g filter="url(#filter0_i_1270_11)">
<circle cx="131.5" cy="139.5" r="85.5" fill="url(#paint0_radial_1270_11)"/>
</g>
<path d="M99 139L123 163L168 118" stroke="#87E25C" stroke-width="11"/>
<path opacity="0.44" d="M259.092 52.2361L144.611 2.94459C139.569 0.0301876 131.374 0.0301876 126.583 2.94459L3.78215 57.4313C1.38679 58.9519 0 60.7259 0 62.6266L29.8864 230.522C29.8864 232.549 31.1471 234.323 33.6685 235.717L118.262 284.755C123.305 287.669 131.5 287.669 136.291 284.755L229.331 230.268C231.727 228.748 233.114 226.974 233.114 225.073L263 57.3046C262.748 55.5306 261.487 53.6299 259.092 52.2361Z" fill="url(#paint1_linear_1270_11)"/>
<defs>
<filter id="filter0_i_1270_11" x="46" y="42" width="171" height="183" filterUnits="userSpaceOnUse" color-interpolation-filters="sRGB">
<feFlood flood-opacity="0" result="BackgroundImageFix"/>
<feBlend mode="normal" in="SourceGraphic" in2="BackgroundImageFix" result="shape"/>
<feColorMatrix in="SourceAlpha" type="matrix" values="0 0 0 0 0 0 0 0 0 0 0 0 0 0 0 0 0 0 127 0" result="hardAlpha"/>
<feOffset dy="-12"/>
<feGaussianBlur stdDeviation="6"/>
<feComposite in2="hardAlpha" operator="arithmetic" k2="-1" k3="1"/>
<feColorMatrix type="matrix" values="0 0 0 0 0.482353 0 0 0 0 0.890196 0 0 0 0 0.266667 0 0 0 0.1 0"/>
<feBlend mode="normal" in2="shape" result="effect1_innerShadow_1270_11"/>
</filter>
<radialGradient id="paint0_radial_1270_11" cx="0" cy="0" r="1" gradientUnits="userSpaceOnUse" gradientTransform="translate(113.297 109.161) rotate(92.2026) scale(86.1152)">
<stop stop-color="#3C3A37"/>
<stop offset="1" stop-color="#181818"/>
</radialGradient>
<linearGradient id="paint1_linear_1270_11" x1="131.496" y1="222.331" x2="131.496" y2="106.382" gradientUnits="userSpaceOnUse">
<stop stop-color="#42FF13" stop-opacity="0.63"/>
<stop offset="0.4323" stop-color="#91FF05" stop-opacity="0.21"/>
<stop offset="1" stop-color="#73FF31" stop-opacity="0"/>
</linearGradient>
</defs>
</svg>
