<svg width="17" height="16" viewBox="0 0 17 16" fill="none" xmlns="../../external.html?link=http://www.w3.org/2000/svg">
<g clip-path="url(#clip0_1607_9608)">
<path d="M13 0H4C2.067 0 0.5 1.567 0.5 3.5V12.5C0.5 14.433 2.067 16 4 16H13C14.933 16 16.5 14.433 16.5 12.5V3.5C16.5 1.567 14.933 0 13 0Z" fill="#FF4B55"/>
<path d="M9.18691 6.6153L9.67638 7.25558L10.4406 6.99977C10.4834 6.98546 10.5197 7.0338 10.4941 7.07089L10.0364 7.73424L10.5159 8.38205C10.5427 8.41827 10.508 8.46777 10.4648 8.45489L9.69245 8.22458L9.22451 8.88077C9.19835 8.91745 9.14054 8.89973 9.13945 8.85467L9.11982 8.04899L8.35116 7.80674C8.30819 7.79317 8.30716 7.73274 8.34969 7.71777L9.10988 7.45014L9.10276 6.64424C9.10235 6.59914 9.15954 6.57952 9.18691 6.6153Z" fill="#F5F5F5"/>
<path d="M6.48009 10.1844C5.10074 10.1844 3.98181 9.06551 3.98181 7.68491C3.98181 6.30685 5.10074 5.18542 6.48009 5.18542C6.99328 5.18542 7.46656 5.34326 7.86093 5.61039C7.92134 5.65129 7.99027 5.57192 7.93968 5.51935C7.35024 4.90651 6.51596 4.53267 5.59099 4.56423C4.00184 4.61845 2.68624 5.89257 2.58471 7.47941C2.4684 9.29701 3.90759 10.8075 5.69946 10.8075C6.58212 10.8075 7.37537 10.4385 7.94187 9.84851C7.99193 9.79638 7.92284 9.71823 7.86302 9.75876C7.46824 10.0264 6.99421 10.1844 6.48009 10.1844Z" fill="#F5F5F5"/>
</g>
<defs>
<clipPath id="clip0_1607_9608">
<rect width="16" height="16" fill="white" transform="translate(0.5)"/>
</clipPath>
</defs>
</svg>
