
<svg width="48" height="48" viewBox="0 0 48 48" fill="none" xmlns="http://www.w3.org/2000/svg">
<circle cx="24" cy="24" r="24" fill="#DC3D47"/>
<path d="M29.8701 18.1396L32.5006 21.7722L36.7594 20.3818L34.1289 24.0143L36.7594 27.6343L32.5006 26.2439L29.8701 29.8764V25.3796L25.6113 23.9892L29.8701 22.6114V18.1396Z" fill="#EEEEEE"/>
<path d="M22.6936 33.0577C21.3173 33.0538 19.9601 32.7364 18.7249 32.1295C17.4897 31.5225 16.4091 30.6421 15.5652 29.555C14.7212 28.4679 14.1362 27.2027 13.8544 25.8556C13.5726 24.5086 13.6016 23.115 13.9391 21.7808C14.2765 20.4465 14.9137 19.2068 15.802 18.1557C16.6904 17.1046 17.8066 16.2697 19.066 15.7146C20.3253 15.1595 21.6946 14.8988 23.0698 14.9521C24.445 15.0054 25.7899 15.3715 27.0025 16.0225C25.4334 14.489 23.4467 13.4526 21.2913 13.0431C19.1359 12.6336 16.9075 12.8692 14.8854 13.7204C12.8633 14.5716 11.1372 16.0006 9.92357 17.8283C8.70989 19.656 8.0625 21.8012 8.0625 23.9952C8.0625 26.1892 8.70989 28.3344 9.92357 30.1621C11.1372 31.9898 12.8633 33.4188 14.8854 34.27C16.9075 35.1212 19.1359 35.3568 21.2913 34.9473C23.4467 34.5378 25.4334 33.5014 27.0025 31.9679C25.6796 32.6849 24.1983 33.0596 22.6936 33.0577Z" fill="#EEEEEE"/>
</svg>
