<svg width="83" height="67" viewBox="0 0 83 67" fill="none" xmlns="../../external.html?link=http://www.w3.org/2000/svg">
<path fill-rule="evenodd" clip-rule="evenodd" d="M26.0955 67C57.4169 67 74.5634 41.2203 74.5634 18.8756C74.5634 18.1274 74.5634 17.4132 74.5292 16.699C77.8424 14.3183 80.7457 11.3254 83.0342 7.92437C79.9943 9.28477 76.7152 10.169 73.2654 10.5772C76.7836 8.46853 79.4819 5.16954 80.7457 1.22437C77.4667 3.16294 73.812 4.55736 69.9181 5.33959C66.7757 2.04061 62.3696 0 57.451 0C48.058 0 40.407 7.58426 40.407 16.903C40.407 18.2294 40.5436 19.5218 40.851 20.7462C26.7103 20.066 14.1749 13.332 5.77243 3.09492C4.3037 5.57766 3.4498 8.50254 3.4498 11.5975C3.4498 17.4812 6.45556 22.6508 11.0325 25.6777C8.23169 25.5756 5.60165 24.8274 3.31317 23.569C3.31317 23.6371 3.31317 23.7051 3.31317 23.7731C3.31317 31.9695 9.18807 38.8056 16.9757 40.37C15.5412 40.7442 14.0383 40.9822 12.5012 40.9822C11.4082 40.9822 10.3494 40.8802 9.29054 40.6761C11.4424 47.4101 17.7613 52.2736 25.2074 52.4096C19.3667 56.933 12.023 59.6538 4.06461 59.6538C2.69835 59.6538 1.3321 59.5858 0 59.4157C7.54856 64.2112 16.4975 67 26.0955 67Z" fill="#FFF5D3"/>
</svg>
