
<svg width="48" height="48" viewBox="0 0 48 48" fill="none" xmlns="http://www.w3.org/2000/svg">
<mask id="mask0_1425_1238" style="mask-type:alpha" maskUnits="userSpaceOnUse" x="0" y="0" width="48" height="48">
<path d="M24 48C37.2548 48 48 37.2548 48 24C48 10.7452 37.2548 0 24 0C10.7452 0 0 10.7452 0 24C0 37.2548 10.7452 48 24 48Z" fill="white"/>
</mask>
<g mask="url(#mask0_1425_1238)">
<path d="M0 24L24 0H48V5.22188L46.0594 8.45625L48 11.475V17.7375L46.0125 20.8031L48 24V30.2625L45.75 33.2344L48 36.525V42.7781L23.7094 45.4313L0 42.7781V36.525L2.54063 33.4031L0 30.2625V24Z" fill="#FDFDFD"/>
<path d="M24 23.9998H48V17.7373H22.2094L24 23.9998ZM22.2094 11.4748H48V5.22168H22.2094V11.4748ZM48 47.9998V42.7779H0V47.9998H48ZM0 36.5248H48V30.2623H0V36.5248Z" fill="#D93D3D"/>
<path d="M0 0H24V24H0V0Z" fill="#0052B4"/>
<path d="M1.40625 1.35938L0.646875 3.75H-1.875L0.159375 5.23125L-0.61875 7.62188L1.40625 6.14062L3.43125 7.62188L2.6625 5.24063L4.70625 3.75H2.19375L1.40625 1.35938ZM10.0125 1.35938L9.23438 3.75H6.72187L8.75625 5.23125L7.97812 7.62188L10.0125 6.14062L12.0469 7.62188L11.2687 5.24063L13.3125 3.75H10.8L10.0125 1.35938ZM18.6281 1.35938L17.85 3.75937H15.3375L17.3719 5.24063L16.5938 7.63125L18.6281 6.15L20.6531 7.62188L19.8844 5.25L21.9188 3.75H19.4062L18.6281 1.35938ZM1.40625 8.3625L0.628125 10.7531H-1.875L0.159375 12.2344L-0.61875 14.625L1.40625 13.125L3.43125 14.5969L2.6625 12.225L4.69687 10.725H2.19375L1.40625 8.3625ZM10.0125 8.3625L9.23438 10.7531H6.73125L8.76562 12.2344L7.9875 14.625L10.0219 13.1437L12.0469 14.6156L11.2781 12.2438L13.3125 10.7437H10.8L10.0125 8.3625ZM18.6188 8.3625L17.8406 10.7531H15.3281L17.3625 12.2344L16.5844 14.625L18.6188 13.1437L20.6437 14.6156L19.875 12.2438L21.9094 10.7437H19.4062L18.6188 8.3625ZM1.40625 15.3375L0.628125 17.7281H-1.875L0.15 19.2188L-0.628125 21.6094L1.40625 20.1188L3.44063 21.6L2.6625 19.2188L4.69687 17.7281H2.18437L1.40625 15.3375ZM10.0125 15.3375L9.23438 17.7281H6.72187L8.75625 19.2188L7.97812 21.6094L10.0125 20.1281L12.0469 21.6094L11.2687 19.2281L13.3031 17.7375H10.7906L10.0125 15.3375ZM18.6188 15.3375L17.8406 17.7281H15.3281L17.3625 19.2094L16.5844 21.6L18.6188 20.1188L20.6531 21.6L19.875 19.2188L21.9094 17.7281H19.4062L18.6188 15.3375Z" fill="#EEEEEE"/>
</g>
</svg>
